<svg version="1.1" id="Layer_1" xmlns="http://www.w3.org/2000/svg" xmlns:xlink="http://www.w3.org/1999/xlink" x="0px" y="0px"
	 width="100%" viewBox="0 0 219 288" enable-background="new 0 0 219 288" xml:space="preserve">
<path fill="#000000" opacity="1.000000" stroke="none" 
	d="
M220.000000,110.000000 
	C220.000000,169.970657 220.000000,229.441299 220.000000,288.955994 
	C147.065369,288.955994 74.130714,288.955994 1.000000,288.955994 
	C1.000000,241.089203 1.000000,193.178146 1.000000,145.267090 
	C1.000000,97.290764 1.000000,49.314434 1.000000,1.169054 
	C73.999687,1.169054 146.999802,1.169054 220.000000,1.169054 
	C220.000000,37.202419 220.000000,73.351212 220.000000,110.000000 
M179.999252,246.074707 
	C179.969864,237.059723 179.940475,228.044724 179.991150,218.498703 
	C180.011520,218.320862 180.031906,218.143005 180.959183,218.012085 
	C183.881485,218.012085 186.803787,218.012085 189.858124,218.012085 
	C189.927856,216.583054 190.006927,215.774918 190.000290,214.967453 
	C189.956650,209.659256 189.894516,204.351181 189.968338,198.552078 
	C189.945358,198.384354 189.922363,198.216629 190.498795,197.482574 
	C190.322372,193.981979 190.145935,190.481400 190.012939,186.046722 
	C190.012939,173.548553 190.012939,161.050385 190.012939,148.136673 
	C186.905762,148.136673 184.472824,148.136673 181.409576,148.071747 
	C180.987885,148.046463 180.566193,148.021194 180.034698,147.099274 
	C179.882736,136.665375 181.017960,138.125198 170.966583,137.964691 
	C170.635590,137.959412 170.305588,137.891190 169.998306,136.968597 
	C169.943634,133.960632 169.888962,130.952667 169.983948,127.297302 
	C169.934616,126.859955 169.885284,126.422600 169.984863,125.111145 
	C170.009155,122.750732 170.033447,120.390327 170.029327,118.087242 
	C170.029327,118.087242 170.089706,118.108398 170.965942,118.028252 
	C180.730148,117.973488 181.920547,116.504250 179.028946,107.118721 
	C179.398972,100.741585 179.768982,94.364456 181.037048,87.998474 
	C183.928284,87.998474 186.819534,87.998474 190.109741,87.998474 
	C190.109741,84.286201 190.109741,81.196022 191.010315,78.018944 
	C193.924545,78.018944 196.838791,78.018944 199.841064,78.018944 
	C199.841064,70.853043 199.841064,64.406654 199.982620,57.056355 
	C199.982620,54.126228 199.982620,51.196102 199.982620,47.875763 
	C196.312592,47.875763 193.189728,47.875763 190.007034,46.973568 
	C190.007034,44.049351 190.007034,41.125134 190.007034,37.811844 
	C186.332870,37.811844 183.263092,37.811844 179.795456,37.811844 
	C179.795456,34.321178 179.795456,31.250139 179.795456,28.164873 
	C176.241425,28.164873 173.106232,28.164873 169.084534,28.015219 
	C166.097672,27.989786 163.110809,27.964355 160.013779,27.033222 
	C160.013779,24.149626 160.013779,21.266029 160.013779,18.164106 
	C156.382568,18.164106 153.176498,18.164106 149.048218,18.012718 
	C142.696045,18.064117 136.343857,18.115517 129.066406,18.016485 
	C122.741600,18.016485 116.416801,18.016485 109.892487,18.016485 
	C109.892487,21.730103 109.892487,24.834244 109.973419,27.973541 
	C109.973419,27.973541 109.938171,27.892651 109.013786,27.994408 
	C99.407379,27.994408 89.800980,27.994408 79.910446,27.994408 
	C79.910446,31.690184 79.910446,34.834518 79.002548,37.999035 
	C76.069077,37.999035 73.135605,37.999035 69.882401,37.999035 
	C69.882401,41.725601 69.882401,44.864914 68.980835,48.001652 
	C66.076653,48.001652 63.172478,48.001652 59.822639,48.001652 
	C59.822639,55.159470 59.822639,61.588463 59.208187,68.017700 
	C58.799725,68.044212 58.391258,68.070724 57.193256,68.015030 
	C56.136810,68.043976 55.080360,68.072914 53.263691,68.035851 
	C52.501385,68.049759 51.739082,68.063675 50.049984,67.992226 
	C44.708569,68.020752 39.367157,68.049278 33.275898,68.023689 
	C32.525429,68.051323 31.774961,68.078957 30.369827,68.614075 
	C30.233038,77.012932 30.046120,85.411575 30.010206,93.810860 
	C30.004414,95.165733 30.670883,96.523476 31.909977,97.955902 
	C34.276417,98.014427 36.642857,98.072945 39.214146,98.493202 
	C39.387417,98.718636 39.605961,98.884384 39.947052,99.867264 
	C39.995171,101.920898 40.043289,103.974533 40.002632,106.954254 
	C40.030701,112.626633 40.058769,118.299011 40.028950,124.721184 
	C40.056492,125.471703 40.084034,126.222214 40.189156,127.772011 
	C43.443977,128.215134 46.698795,128.658249 49.981220,129.979034 
	C50.043056,132.325897 50.104897,134.672745 50.060493,137.440262 
	C50.060493,137.440262 50.002056,137.870163 49.104683,137.972672 
	C39.137634,138.155365 40.008602,136.622589 40.009510,146.979004 
	C40.009541,147.310745 39.985668,147.642487 39.060131,147.992752 
	C36.143116,147.992752 33.226105,147.992752 29.892992,147.992752 
	C29.892992,151.397293 29.892992,154.177612 29.076050,157.042725 
	C25.785378,157.565903 22.494705,158.089081 19.157400,158.619675 
	C19.157400,165.265213 19.157400,171.650070 19.019537,178.958298 
	C19.012192,181.934921 18.999182,184.911560 18.998510,187.888184 
	C18.996017,198.937332 18.997543,198.937332 29.984524,199.910202 
	C30.148205,210.162643 28.642506,208.944809 38.977375,209.005371 
	C39.309521,209.007324 39.641392,209.056458 39.995262,209.963425 
	C40.015358,218.614899 39.101559,218.087509 47.989044,218.021973 
	C48.648560,218.017105 49.308968,218.133011 49.984081,218.612946 
	C49.984081,218.612946 50.016174,219.032333 49.945343,219.962540 
	C49.916157,225.949677 49.886971,231.936813 49.950699,237.902145 
	C49.950699,237.902145 49.893646,237.825638 48.996788,237.881958 
	C46.090324,237.881958 43.183865,237.881958 40.078842,237.881958 
	C40.078842,248.465530 40.078842,258.212921 39.988426,268.863739 
	C40.025448,278.277161 40.025448,278.277161 49.923347,278.023712 
	C61.939625,277.985504 73.955902,277.947327 86.781715,277.968628 
	C87.863014,277.947968 88.944321,277.927307 90.953636,277.996613 
	C105.293053,277.967194 119.632477,277.937744 134.781357,277.968140 
	C135.862625,277.948181 136.943909,277.928223 138.937103,277.997772 
	C142.615250,277.967163 146.293381,277.936523 150.781006,277.966431 
	C151.862396,277.947235 152.943771,277.928040 154.953278,277.998688 
	C160.400955,278.010132 165.848633,278.028229 171.296310,278.031464 
	C180.299347,278.036804 180.299347,278.032776 179.916107,268.277313 
	C179.889542,267.828247 179.862961,267.379181 179.962936,266.049713 
	C179.921432,263.381348 179.879929,260.713013 179.964813,257.149292 
	C179.931351,254.453049 179.897888,251.756805 179.975189,248.381668 
	C179.957489,247.924652 179.939789,247.467621 179.999252,246.074707 
z"/>
<path fill="#A80405" opacity="1.000000" stroke="none" 
	d="
M179.864410,249.060547 
	C179.897888,251.756805 179.931351,254.453049 179.444901,257.583130 
	C172.629150,258.031097 166.333298,258.045288 159.576355,258.039062 
	C148.648041,258.149323 150.129501,256.500793 150.016129,266.950745 
	C150.012604,267.275787 150.035965,267.601105 149.575806,267.951172 
	C136.411423,267.960663 123.718040,267.945282 111.018417,267.487610 
	C110.088501,264.095001 113.013252,260.260345 108.490677,258.024109 
	C105.472450,258.014771 102.904892,258.014771 100.281937,258.014771 
	C100.146568,255.953888 99.961380,254.799408 100.015427,253.656235 
	C100.204155,249.664276 98.377007,248.018753 94.371231,247.933609 
	C90.197395,247.844879 89.646645,250.243607 90.032768,253.380844 
	C90.507622,257.239044 88.800186,258.494812 85.198868,258.007843 
	C81.367867,257.489777 79.546822,259.115234 80.000473,263.065765 
	C80.438988,266.884521 78.250496,268.050781 74.920807,268.022278 
	C73.262856,268.008087 71.605034,267.978790 69.961212,267.720032 
	C69.975258,267.483734 69.967003,267.009766 69.976028,266.633606 
	C69.980133,265.504944 69.975220,264.752472 69.981094,263.570526 
	C70.999062,257.916901 67.815231,257.606415 63.599213,258.023102 
	C62.117226,258.028412 61.038887,258.043518 59.505600,258.042603 
	C57.902130,258.017273 56.728767,257.850006 55.609425,258.026123 
	C50.998039,258.751648 49.557674,256.777740 49.916370,252.296875 
	C50.268616,247.896576 49.961380,243.443481 49.943409,238.716064 
	C49.926723,238.220917 49.910183,238.023285 49.893646,237.825638 
	C49.893646,237.825638 49.950699,237.902145 50.374489,237.938034 
	C51.955551,237.982529 53.133350,237.854080 54.266483,238.023834 
	C58.786594,238.701019 60.488445,236.967575 60.083027,232.318451 
	C59.667873,227.557709 59.920658,222.738724 59.898262,217.920044 
	C59.915443,217.894852 59.976364,217.897263 60.424126,217.934906 
	C63.565334,217.972610 66.258789,217.972656 69.351158,217.887604 
	C70.166794,216.329056 70.897034,214.865326 70.943291,213.380310 
	C71.101891,208.288544 71.020668,203.189301 71.472122,198.064682 
	C74.274513,198.006256 76.635674,197.976074 79.212112,197.856430 
	C79.696709,197.577484 79.858536,197.320328 79.931976,196.527893 
	C79.987862,190.021729 80.024635,183.983215 80.291992,177.956848 
	C80.522591,177.969025 80.985161,177.955688 81.423553,177.968109 
	C83.908302,177.977310 85.954659,177.974091 88.389740,178.071808 
	C89.175850,178.832764 89.841034,179.458847 89.929588,180.157974 
	C90.914658,187.934769 90.890587,187.937546 98.966164,188.017517 
	C99.295860,188.020782 99.625404,188.039200 99.966904,188.515732 
	C99.985474,193.301758 99.608200,197.667007 100.101395,201.931595 
	C100.650055,206.675705 98.632126,208.790833 94.296822,208.878616 
	C90.630684,208.952835 89.739532,210.830078 89.987312,213.984131 
	C90.091202,215.306534 90.034668,216.641541 90.033051,218.427734 
	C90.013268,221.925293 90.011513,224.965942 89.551163,228.002533 
	C86.946571,228.004883 84.668114,227.579391 82.704735,228.181427 
	C81.545738,228.536804 80.109550,230.560379 80.173080,231.760956 
	C80.283623,233.849655 80.976479,237.245255 82.270042,237.702408 
	C87.917236,239.698196 89.986916,237.885376 89.998520,231.952255 
	C90.001106,230.631577 89.995346,229.310913 90.448166,227.993896 
	C93.940926,227.987198 96.978958,227.976837 100.473274,227.978912 
	C108.896172,228.019592 109.038765,228.037399 109.956299,220.687180 
	C110.390366,217.209946 112.804871,217.881226 114.726059,218.067230 
	C118.787796,218.460510 120.700783,217.068939 119.996178,212.851273 
	C119.308624,208.735703 121.305534,207.737106 125.070244,207.932953 
	C130.026123,208.190750 135.006836,207.971176 140.429291,207.974915 
	C143.591705,207.984161 146.301697,207.975388 149.250763,207.981049 
	C149.489822,207.995499 149.968445,208.019287 149.977722,208.349731 
	C150.001251,209.120728 150.015503,209.561279 150.020599,210.450165 
	C150.592545,213.228989 150.975571,217.455597 151.791229,217.540817 
	C154.425125,217.815948 158.000824,219.986816 159.983673,215.563141 
	C159.982025,212.736359 159.970062,210.355255 159.799194,207.590866 
	C159.747757,200.782364 159.855209,194.357147 160.423431,187.957550 
	C171.458206,187.867157 169.840332,189.465195 169.992172,178.918289 
	C170.001602,178.262878 169.959030,177.606705 169.963196,176.507263 
	C170.017654,173.400574 170.049591,170.737503 170.524643,168.048843 
	C173.634033,167.979004 176.300293,167.934769 179.199524,167.931046 
	C179.432480,167.971542 179.905304,167.978836 179.921432,168.448120 
	C179.959991,174.943558 179.982407,180.969711 179.716003,187.297455 
	C179.283997,192.560425 179.398010,197.549500 178.868362,202.469254 
	C178.662430,204.382004 177.004120,206.138367 175.590469,207.976715 
	C173.783539,208.008041 172.393555,208.028610 170.784363,208.139343 
	C170.290375,208.418427 170.118622,208.676071 170.034790,209.470703 
	C170.032883,222.286377 170.046082,234.633789 170.126541,247.373138 
	C173.417328,248.196899 176.640884,248.628723 179.864410,249.060547 
z"/>
<path fill="#E9B597" opacity="1.000000" stroke="none" 
	d="
M169.835953,125.985252 
	C169.885284,126.422600 169.934616,126.859955 169.493500,127.630646 
	C167.336990,127.977974 165.670959,127.991959 163.744965,127.733963 
	C161.315140,127.591995 159.145248,127.722015 156.564377,127.892822 
	C154.779999,127.985725 153.406616,128.037857 151.565979,128.055618 
	C146.388702,128.044418 141.678650,128.067581 136.524292,128.046173 
	C133.400284,128.036499 130.720581,128.071381 127.635300,128.072357 
	C126.146095,128.069717 125.062477,128.100983 123.746384,128.182022 
	C123.231972,128.408203 123.039421,128.654526 122.534592,128.991333 
	C118.052437,131.506729 120.117455,134.746033 120.728104,137.990173 
	C116.945274,138.425201 113.496658,138.719727 109.994492,138.810852 
	C109.940933,138.607468 109.828064,138.202225 109.877487,137.734467 
	C109.808838,134.474930 110.493446,131.227890 109.266678,129.064911 
	C108.549614,127.800606 104.702217,128.525543 102.419579,127.836861 
	C101.416504,127.534233 100.200706,125.983521 100.121872,124.922226 
	C99.840363,121.132156 99.722496,117.282623 100.074806,113.505219 
	C100.482071,109.138535 99.010574,107.292236 94.568840,107.988327 
	C91.252548,108.508064 89.689018,107.277130 89.939041,103.640968 
	C90.211174,99.683228 90.116760,95.688148 89.965614,91.717583 
	C89.859116,88.920013 90.944412,87.893990 93.728973,87.961327 
	C98.861145,88.085449 103.999474,87.955559 109.362076,88.004135 
	C109.877396,88.262802 110.037216,88.526749 110.047974,89.331665 
	C110.025780,91.613678 109.839325,93.459389 110.097618,95.240616 
	C110.233276,96.176125 110.954430,97.477402 111.741463,97.794975 
	C117.021751,99.925529 120.325188,97.539139 119.960060,91.944054 
	C119.876671,90.666397 119.364830,89.416695 119.250061,88.079361 
	C119.449944,88.004593 119.869553,87.926506 120.345917,87.948311 
	C133.806412,88.048073 146.790558,88.126022 159.854050,88.638275 
	C159.960495,91.057060 159.890167,93.049843 160.058258,95.022316 
	C160.135300,95.926109 160.613556,97.515366 161.025436,97.553749 
	C163.626968,97.796227 166.321564,97.994698 168.842484,97.491531 
	C169.491104,97.362068 169.748444,94.679070 169.964539,93.138145 
	C170.192825,91.510246 170.157181,89.845329 170.667206,88.134773 
	C173.974579,88.082527 176.851547,88.092094 179.852829,88.150955 
	C179.977142,88.200249 180.138992,87.987320 180.138992,87.987320 
	C179.768982,94.364456 179.398972,100.741585 178.608429,107.554611 
	C169.191391,108.188873 170.048233,106.490158 170.014679,116.129425 
	C170.012375,116.788986 170.063461,117.448738 170.089706,118.108398 
	C170.089706,118.108398 170.029327,118.087242 169.755554,118.312958 
	C169.599838,121.020859 169.717896,123.503059 169.835953,125.985252 
z"/>
<path fill="#F3F3F3" opacity="1.000000" stroke="none" 
	d="
M129.991684,18.166916 
	C136.343857,18.115517 142.696045,18.064117 149.518280,18.535334 
	C150.258377,29.140356 148.169235,27.924566 159.146439,27.973522 
	C159.472214,27.974976 159.798111,27.951029 160.123947,27.938923 
	C163.110809,27.964355 166.097672,27.989786 169.536407,28.547958 
	C169.992157,34.040276 169.877625,39.003853 170.044785,43.957920 
	C170.143494,46.883255 169.216660,48.501255 166.127213,47.973053 
	C160.952087,47.088257 159.211075,49.336365 159.971085,54.254677 
	C160.392746,56.983421 159.138229,58.120827 156.317612,58.033497 
	C150.867218,57.864746 145.409637,57.927494 139.646927,57.630100 
	C133.885452,57.539509 128.432114,57.713093 122.654831,57.914757 
	C121.899239,57.907349 121.467560,57.871864 121.026367,57.446335 
	C120.663239,55.361366 120.309624,53.666447 119.971588,51.647934 
	C119.975143,50.892704 119.963120,50.461063 120.181274,49.851173 
	C119.904381,49.133793 119.397316,48.594658 118.453842,48.037495 
	C110.129021,47.956142 110.129684,47.956154 109.973183,55.976055 
	C109.966805,56.302895 109.925285,56.629047 109.488853,56.973923 
	C106.050385,57.321072 103.023209,57.649818 99.995934,57.522434 
	C99.995399,55.260780 99.883965,53.446835 100.020119,51.651669 
	C100.232925,48.845741 98.968117,47.576256 96.275902,48.030277 
	C90.859360,48.943752 89.254852,46.418789 89.975487,41.475082 
	C90.139076,40.352840 89.965759,39.181492 90.420990,38.021019 
	C94.029533,38.005817 97.164597,37.999176 100.299667,37.999470 
	C110.138191,38.000397 110.138191,38.001404 109.938171,27.892651 
	C109.938171,27.892651 109.973419,27.973541 110.407974,27.974934 
	C113.968613,27.984827 117.094749,28.007246 120.220795,27.999304 
	C130.939575,27.972071 129.998093,29.022270 129.991684,18.166916 
z"/>
<path fill="#680A19" opacity="1.000000" stroke="none" 
	d="
M111.024658,267.929871 
	C123.718040,267.945282 136.411423,267.960663 149.808182,268.000549 
	C150.511551,268.024994 150.977570,268.119934 151.302887,268.379028 
	C160.751328,268.762695 169.874435,268.887238 178.998199,269.460083 
	C178.990402,276.997253 178.987976,276.881775 171.672211,277.035187 
	C165.786346,277.158600 159.907257,277.605499 154.025162,277.908875 
	C152.943771,277.928040 151.862396,277.947235 150.073364,277.672241 
	C145.585526,277.554810 141.805359,277.731537 138.025177,277.908264 
	C136.943909,277.928223 135.862625,277.948181 134.066681,277.670410 
	C119.487175,277.266663 105.622398,277.150208 91.757370,277.091156 
	C91.181282,277.088715 90.602921,277.622620 90.025620,277.906677 
	C88.944321,277.927307 87.863014,277.947968 86.067062,277.670898 
	C73.899796,277.247192 62.447189,277.121216 50.995956,276.546753 
	C51.012329,269.012360 51.014030,269.103180 58.305653,268.966553 
	C61.874519,268.899689 65.435699,268.422791 69.005157,268.077942 
	C69.009949,268.024384 68.999863,267.917358 69.235847,267.947510 
	C69.471832,267.977661 69.947159,267.956329 69.947159,267.956329 
	C71.605034,267.978790 73.262856,268.008087 74.920807,268.022278 
	C78.250496,268.050781 80.438988,266.884521 80.000473,263.065765 
	C79.546822,259.115234 81.367867,257.489777 85.198868,258.007843 
	C88.800186,258.494812 90.507622,257.239044 90.032768,253.380844 
	C89.646645,250.243607 90.197395,247.844879 94.371231,247.933609 
	C98.377007,248.018753 100.204155,249.664276 100.015427,253.656235 
	C99.961380,254.799408 100.146568,255.953888 100.281937,258.014771 
	C102.904892,258.014771 105.472450,258.014771 108.509262,258.469482 
	C109.919350,261.867279 106.996925,265.688141 111.024658,267.929871 
z"/>
<path fill="#670A17" opacity="1.000000" stroke="none" 
	d="
M40.091404,106.028168 
	C40.043289,103.974533 39.995171,101.920898 39.854549,99.211578 
	C39.589424,98.275642 39.338509,98.134171 39.009296,98.131470 
	C36.642857,98.072945 34.276417,98.014427 31.460861,97.461182 
	C31.015995,87.346512 31.020245,77.726547 31.024494,68.106598 
	C31.774961,68.078957 32.525429,68.051323 33.958664,68.320892 
	C40.086544,68.437920 45.531662,68.257759 50.976776,68.077591 
	C51.739082,68.063675 52.501385,68.049759 53.864983,68.302292 
	C55.638451,68.411568 56.810623,68.254402 57.982796,68.097229 
	C58.391258,68.070724 58.799725,68.044212 59.611393,68.002235 
	C60.014599,67.986771 60.203308,68.033455 60.116386,68.363808 
	C59.959938,69.144432 59.890411,69.594696 59.582596,70.336243 
	C59.507710,73.071083 59.671116,75.514656 59.920673,77.960159 
	C60.006824,77.962097 60.176907,77.934265 60.103889,78.379822 
	C58.928291,81.915939 62.586605,86.577377 56.506279,88.107071 
	C54.160763,88.043144 52.256210,88.043144 50.167591,88.043144 
	C50.167591,93.763901 50.167591,98.850372 50.107071,104.330231 
	C49.836765,108.597672 52.850136,107.788658 55.331184,108.409210 
	C58.235622,108.902573 59.042595,110.288521 59.080761,112.936821 
	C59.153130,117.958481 59.709969,122.973167 60.040157,127.967102 
	C60.014759,127.943451 60.070667,127.902313 60.048065,128.359238 
	C60.011135,131.538010 59.996807,134.259872 59.532070,136.986115 
	C56.110020,137.000214 53.138378,137.009903 50.166737,137.019608 
	C50.104897,134.672745 50.043056,132.325897 49.896927,129.142441 
	C46.578949,127.861481 43.345261,127.417107 40.111576,126.972733 
	C40.084034,126.222214 40.056492,125.471703 40.326313,124.037407 
	C40.446251,117.578476 40.268829,111.803322 40.091404,106.028168 
z"/>
<path fill="#CFD3D3" opacity="1.000000" stroke="none" 
	d="
M139.955048,57.894279 
	C145.409637,57.927494 150.867218,57.864746 156.317612,58.033497 
	C159.138229,58.120827 160.392746,56.983421 159.971085,54.254677 
	C159.211075,49.336365 160.952087,47.088257 166.127213,47.973053 
	C169.216660,48.501255 170.143494,46.883255 170.044785,43.957920 
	C169.877625,39.003853 169.992157,34.040276 169.979675,28.622786 
	C173.106232,28.164873 176.241425,28.164873 179.795456,28.164873 
	C179.795456,31.250139 179.795456,34.321178 179.795456,37.811844 
	C183.263092,37.811844 186.332870,37.811844 190.007034,37.811844 
	C190.007034,41.125134 190.007034,44.049351 190.015869,47.886284 
	C190.014191,51.863728 190.003662,54.928455 189.996567,57.996517 
	C190.000000,57.999847 189.995071,57.994789 189.538025,57.997208 
	C186.589050,58.050606 183.371048,57.183456 181.813065,58.415493 
	C180.309830,59.604240 180.845718,63.107365 179.847229,65.303436 
	C179.298706,66.509895 177.471222,67.801346 176.154587,67.874802 
	C170.916550,68.167023 165.652634,67.995132 159.953766,67.995132 
	C159.953766,71.807533 159.953766,74.779854 159.722870,77.821877 
	C159.491989,77.891579 159.042099,78.065544 158.592834,78.043213 
	C155.743607,77.975891 153.343643,77.930908 150.780457,77.521530 
	C150.422623,76.533356 150.107056,75.920059 150.051926,75.284180 
	C149.426361,68.070549 149.437012,68.069885 141.945099,67.999306 
	C141.615311,67.996193 141.285645,67.980202 140.863174,67.751770 
	C140.578339,67.264809 140.324905,67.080772 139.998688,66.539688 
	C139.954910,63.742992 139.922531,61.387802 139.921783,58.801918 
	C139.953400,58.571220 139.966232,58.105690 139.965210,58.052742 
	C139.964172,57.999798 139.955048,57.894276 139.955048,57.894279 
z"/>
<path fill="#E8B698" opacity="1.000000" stroke="none" 
	d="
M39.973389,209.083603 
	C39.641392,209.056458 39.309521,209.007324 38.977375,209.005371 
	C28.642506,208.944809 30.148205,210.162643 29.986071,199.193069 
	C30.031727,198.294586 30.075834,198.113220 30.567179,197.954773 
	C40.891666,198.045670 41.981770,196.684692 39.313530,188.029480 
	C40.111729,187.995377 40.567524,187.975739 41.489906,187.971222 
	C47.973392,187.988998 53.990284,187.991653 60.015160,187.937195 
	C60.023144,187.880081 60.138432,187.877197 60.093445,188.353027 
	C60.043713,195.234512 60.038963,201.640182 60.021935,208.035950 
	C60.009659,208.026062 60.041424,208.032501 59.570557,208.021362 
	C52.724255,208.368027 46.348824,208.725815 39.973389,209.083603 
z"/>
<path fill="#CFD3D3" opacity="1.000000" stroke="none" 
	d="
M89.947525,38.032745 
	C89.965759,39.181492 90.139076,40.352840 89.975487,41.475082 
	C89.254852,46.418789 90.859360,48.943752 96.275902,48.030277 
	C98.968117,47.576256 100.232925,48.845741 100.020119,51.651669 
	C99.883965,53.446835 99.995399,55.260780 99.741592,57.544960 
	C99.317680,58.037609 99.148018,58.051613 98.529694,58.043194 
	C95.371376,58.049793 92.661705,58.078815 89.506943,58.075436 
	C86.385040,58.056862 83.708252,58.070690 80.733711,57.790909 
	C79.121689,48.260155 79.121689,48.260155 70.187027,47.803154 
	C70.045525,47.748020 69.882401,48.004230 69.882401,48.004230 
	C69.882401,44.864914 69.882401,41.725601 69.882401,37.999035 
	C73.135605,37.999035 76.069077,37.999035 79.915634,37.994957 
	C83.868317,38.004837 86.907913,38.018791 89.947525,38.032745 
z"/>
<path fill="#670A14" opacity="1.000000" stroke="none" 
	d="
M170.059296,246.981186 
	C170.046082,234.633789 170.032883,222.286377 170.238388,209.361420 
	C170.711395,208.592651 170.893555,208.347763 171.003555,208.049179 
	C172.393555,208.028610 173.783539,208.008041 175.921524,208.000183 
	C177.112000,208.030411 177.554489,208.047897 178.094940,208.212769 
	C178.460632,208.252625 178.728378,208.145126 179.202759,208.026855 
	C179.409378,208.016068 179.822968,208.002441 179.893524,208.446533 
	C180.030838,211.591751 180.097610,214.292877 180.105591,217.233246 
	C180.046814,217.472488 180.052292,217.965164 180.052292,217.965164 
	C180.031906,218.143005 180.011520,218.320862 179.681946,219.072937 
	C179.252274,228.760437 179.131836,237.873703 178.561340,246.992401 
	C175.427277,246.992294 172.743286,246.986740 170.059296,246.981186 
z"/>
<path fill="#670A18" opacity="1.000000" stroke="none" 
	d="
M180.004822,186.995865 
	C179.982407,180.969711 179.959991,174.943558 179.963379,167.982330 
	C179.918732,160.720840 179.848267,154.394409 179.865906,148.031769 
	C179.953995,147.995560 180.144501,147.995911 180.144501,147.995911 
	C180.566193,148.021194 180.987885,148.046463 182.021317,148.353760 
	C188.175964,148.166519 189.361633,150.864868 189.134949,156.051483 
	C188.684418,166.359009 189.011246,176.700500 188.983963,187.290497 
	C188.923309,187.727234 188.895538,187.901428 188.436417,188.051712 
	C185.685989,188.029648 183.366898,188.031509 180.932037,187.807678 
	C180.545776,187.386612 180.275299,187.191238 180.004822,186.995865 
z"/>
<path fill="#FEFEFE" opacity="1.000000" stroke="none" 
	d="
M90.420990,38.021019 
	C86.907913,38.018791 83.868317,38.004837 80.369583,37.984871 
	C79.910446,34.834518 79.910446,31.690184 79.910446,27.994408 
	C89.800980,27.994408 99.407379,27.994408 109.475983,27.943529 
	C110.138191,38.001404 110.138191,38.000397 100.299667,37.999470 
	C97.164597,37.999176 94.029533,38.005817 90.420990,38.021019 
z"/>
<path fill="#888D8C" opacity="1.000000" stroke="none" 
	d="
M59.918617,68.002113 
	C59.822639,61.588463 59.822639,55.159470 59.822639,48.001652 
	C63.172478,48.001652 66.076653,48.001652 69.431618,48.002941 
	C69.882401,48.004230 70.045525,47.748020 70.080956,48.274651 
	C70.083221,55.184269 70.050056,61.567265 70.011459,68.217651 
	C70.007111,68.663361 70.008194,68.841660 69.999863,69.462723 
	C69.965881,72.269348 69.941315,74.633209 69.720505,77.108841 
	C69.279930,77.411514 69.104782,77.652679 68.554611,77.960403 
	C65.465912,77.962555 62.821407,77.948410 60.176907,77.934265 
	C60.176907,77.934265 60.006824,77.962097 59.998077,77.641556 
	C60.052814,76.887802 60.116306,76.454590 60.413780,75.719055 
	C60.499615,72.955627 60.351463,70.494545 60.203308,68.033455 
	C60.203308,68.033455 60.014599,67.986771 59.918617,68.002113 
z"/>
<path fill="#A96A02" opacity="1.000000" stroke="none" 
	d="
M178.966553,167.890549 
	C176.300293,167.934769 173.634033,167.979004 170.483612,168.012665 
	C169.999451,168.002090 169.919876,167.928665 169.948669,167.481430 
	C169.979919,164.007065 169.982391,160.979950 169.988098,157.488937 
	C169.970032,150.664688 169.948746,144.304321 169.933380,137.917923 
	C169.939301,137.891891 169.975128,137.852310 169.975128,137.852310 
	C170.305588,137.891190 170.635590,137.959412 170.966583,137.964691 
	C181.017960,138.125198 179.882736,136.665375 180.089600,147.547592 
	C180.144501,147.995911 179.953995,147.995560 179.626801,148.356033 
	C179.188599,155.107849 179.077576,161.499207 178.966553,167.890549 
z"/>
<path fill="#878C8C" opacity="1.000000" stroke="none" 
	d="
M199.841064,57.960270 
	C199.841064,64.406654 199.841064,70.853043 199.841064,78.018944 
	C196.838791,78.018944 193.924545,78.018944 190.478180,77.983643 
	C189.946060,77.948334 189.783463,77.789726 189.860504,77.345131 
	C189.956726,70.598618 189.975906,64.296707 189.995071,57.994789 
	C189.995071,57.994789 190.000000,57.999847 190.447189,57.997562 
	C193.876602,57.983608 196.858841,57.971939 199.841064,57.960270 
z"/>
<path fill="#FEFEFE" opacity="1.000000" stroke="none" 
	d="
M129.529053,18.091702 
	C129.998093,29.022270 130.939575,27.972071 120.220795,27.999304 
	C117.094749,28.007246 113.968613,27.984827 110.367508,27.957355 
	C109.892487,24.834244 109.892487,21.730103 109.892487,18.016485 
	C116.416801,18.016485 122.741600,18.016485 129.529053,18.091702 
z"/>
<path fill="#C6997A" opacity="1.000000" stroke="none" 
	d="
M39.984325,209.523514 
	C46.348824,208.725815 52.724255,208.368027 59.548389,208.471329 
	C59.990181,211.920715 59.983273,214.908981 59.976364,217.897263 
	C59.976364,217.897263 59.915443,217.894852 59.457619,217.935638 
	C56.317440,218.031281 53.635086,218.086136 50.703682,218.094879 
	C50.292740,218.096756 50.130852,218.144760 49.968960,218.192749 
	C49.308968,218.133011 48.648560,218.017105 47.989044,218.021973 
	C39.101559,218.087509 40.015358,218.614899 39.984325,209.523514 
z"/>
<path fill="#DD2B09" opacity="1.000000" stroke="none" 
	d="
M160.037445,258.059448 
	C166.333298,258.045288 172.629150,258.031097 179.381714,258.030792 
	C179.879929,260.713013 179.921432,263.381348 179.540741,266.687805 
	C172.758362,267.512115 166.398193,267.698364 160.024460,267.441742 
	C160.019760,264.019073 160.028610,261.039276 160.037445,258.059448 
z"/>
<path fill="#C42508" opacity="1.000000" stroke="none" 
	d="
M50.952736,218.140991 
	C53.635086,218.086136 56.317440,218.031281 59.440437,217.960815 
	C59.920658,222.738724 59.667873,227.557709 60.083027,232.318451 
	C60.488445,236.967575 58.786594,238.701019 54.266483,238.023834 
	C53.133350,237.854080 51.955551,237.982529 50.328033,237.948944 
	C49.886971,231.936813 49.916157,225.949677 50.211433,219.439667 
	C50.789440,218.752197 50.947845,218.493591 50.952736,218.140991 
z"/>
<path fill="#DD2B08" opacity="1.000000" stroke="none" 
	d="
M39.972935,147.974228 
	C39.985668,147.642487 40.009541,147.310745 40.009510,146.979004 
	C40.008602,136.622589 39.137634,138.155365 49.522346,138.018738 
	C49.940006,138.064819 50.022686,138.251572 50.350330,138.472931 
	C53.782188,138.802460 56.886402,138.910629 59.992668,139.466522 
	C59.985764,142.589508 59.976810,145.264786 59.517410,147.957123 
	C56.060402,147.996109 53.053837,148.018005 49.589508,148.026001 
	C46.100498,148.020889 43.069256,148.029709 40.021626,148.022552 
	C40.005241,148.006607 39.972935,147.974228 39.972935,147.974228 
z"/>
<path fill="#C69978" opacity="1.000000" stroke="none" 
	d="
M180.164383,216.994019 
	C180.097610,214.292877 180.030838,211.591751 179.957153,208.010895 
	C180.341614,204.116013 180.732971,201.100845 181.561035,198.057861 
	C184.343933,197.974945 186.690079,197.919830 189.249115,197.924408 
	C189.461990,197.984085 189.899353,198.048904 189.899353,198.048904 
	C189.922363,198.216629 189.945358,198.384354 189.649033,199.118866 
	C189.219772,202.470627 189.060333,205.254700 189.008698,208.040771 
	C188.817795,218.338165 190.443237,216.856308 180.164383,216.994019 
z"/>
<path fill="#D0D2D2" opacity="1.000000" stroke="none" 
	d="
M160.068863,27.486073 
	C159.798111,27.951029 159.472214,27.974976 159.146439,27.973522 
	C148.169235,27.924566 150.258377,29.140356 149.979401,18.611027 
	C153.176498,18.164106 156.382568,18.164106 160.013779,18.164106 
	C160.013779,21.266029 160.013779,24.149626 160.068863,27.486073 
z"/>
<path fill="#898C8C" opacity="1.000000" stroke="none" 
	d="
M190.027893,78.027092 
	C190.109741,81.196022 190.109741,84.286201 190.109741,87.998474 
	C186.819534,87.998474 183.928284,87.998474 180.588013,87.992897 
	C180.138992,87.987320 179.977142,88.200249 179.941650,87.695473 
	C179.925308,84.157501 179.944427,81.124313 180.416992,78.060608 
	C183.841446,77.949982 186.812454,77.869850 189.783463,77.789719 
	C189.783463,77.789726 189.946060,77.948334 190.027893,78.027092 
z"/>
<path fill="#A8AEAE" opacity="1.000000" stroke="none" 
	d="
M199.911835,57.508312 
	C196.858841,57.971939 193.876602,57.983608 190.443756,57.994232 
	C190.003662,54.928455 190.014191,51.863728 190.045792,48.337379 
	C193.189728,47.875763 196.312592,47.875763 199.982620,47.875763 
	C199.982620,51.196102 199.982620,54.126228 199.911835,57.508312 
z"/>
<path fill="#DD2D0D" opacity="1.000000" stroke="none" 
	d="
M29.892992,156.957932 
	C29.892992,154.177612 29.892992,151.397293 29.892992,147.992752 
	C33.226105,147.992752 36.143116,147.992752 39.516533,147.983490 
	C39.972935,147.974228 40.005241,148.006607 40.008663,148.473892 
	C40.011520,151.964554 40.010952,154.987930 40.005421,158.006256 
	C40.000458,158.001221 40.007828,158.006470 39.568115,158.003113 
	C36.114735,157.681168 33.101067,157.362549 30.046272,157.005554 
	C30.005144,156.967163 29.892992,156.957932 29.892992,156.957932 
z"/>
<path fill="#C69877" opacity="1.000000" stroke="none" 
	d="
M170.527832,118.068329 
	C170.063461,117.448738 170.012375,116.788986 170.014679,116.129425 
	C170.048233,106.490158 169.191391,108.188873 178.649933,107.982300 
	C181.920547,116.504250 180.730148,117.973488 170.527832,118.068329 
z"/>
<path fill="#D0D2D2" opacity="1.000000" stroke="none" 
	d="
M164.004913,128.005951 
	C165.670959,127.991959 167.336990,127.977974 169.418671,127.954346 
	C169.888962,130.952667 169.943634,133.960632 169.986725,137.410461 
	C169.975128,137.852310 169.939301,137.891891 169.698273,137.956665 
	C169.457230,138.021423 169.005692,138.173798 168.570908,138.104660 
	C165.798080,138.039673 163.460022,138.043823 160.834763,138.032715 
	C160.356018,138.008026 160.164490,137.998627 159.981354,137.538391 
	C160.017227,134.377960 160.044708,131.668350 160.429581,128.973679 
	C161.859604,128.661072 162.932266,128.333511 164.004913,128.005951 
z"/>
<path fill="#A61D04" opacity="1.000000" stroke="none" 
	d="
M48.987514,277.946686 
	C40.025448,278.277161 40.025448,278.277161 40.266762,268.415771 
	C40.545101,267.967804 41.011356,267.954498 41.464687,267.972137 
	C44.343239,268.095306 46.768456,268.200836 49.133774,268.722473 
	C49.082371,271.777924 49.090862,274.417206 49.071747,277.279114 
	C49.044144,277.501678 48.987514,277.946686 48.987514,277.946686 
z"/>
<path fill="#CE9B2D" opacity="1.000000" stroke="none" 
	d="
M30.119940,197.931870 
	C30.075834,198.113220 30.031727,198.294586 29.919392,198.746796 
	C18.997543,198.937332 18.996017,198.937332 18.998510,187.888184 
	C18.999182,184.911560 19.012192,181.934921 19.399626,178.494095 
	C20.192305,178.069778 20.604895,178.109665 21.014393,178.604309 
	C21.006937,182.200974 20.944103,185.344131 21.009195,188.484634 
	C21.202244,197.799026 19.218550,197.051636 29.900726,197.196671 
	C30.022833,197.605011 30.071386,197.768433 30.119940,197.931870 
z"/>
<path fill="#BD381D" opacity="1.000000" stroke="none" 
	d="
M21.017483,178.149567 
	C20.604895,178.109665 20.192305,178.069778 19.468557,178.032410 
	C19.157400,171.650070 19.157400,165.265213 19.157400,158.619675 
	C22.494705,158.089081 25.785378,157.565903 29.484520,157.000336 
	C29.892992,156.957932 30.005144,156.967163 30.015707,157.327209 
	C30.013571,158.118179 30.000874,158.549133 29.534412,158.988953 
	C28.248655,159.000214 27.400337,159.110229 26.587410,158.986938 
	C22.334154,158.341782 20.503696,159.802948 20.912079,164.392242 
	C21.308723,168.849640 20.996090,173.370148 21.005657,177.934204 
	C21.016386,178.005447 21.017483,178.149567 21.017483,178.149567 
z"/>
<path fill="#57111E" opacity="1.000000" stroke="none" 
	d="
M189.016846,187.027969 
	C189.011246,176.700500 188.684418,166.359009 189.134949,156.051483 
	C189.361633,150.864868 188.175964,148.166519 182.336472,148.386215 
	C184.472824,148.136673 186.905762,148.136673 190.012939,148.136673 
	C190.012939,161.050385 190.012939,173.548553 189.752991,186.522400 
	C189.493057,186.998077 189.016846,187.027969 189.016846,187.027969 
z"/>
<path fill="#57111E" opacity="1.000000" stroke="none" 
	d="
M90.489624,277.951630 
	C90.602921,277.622620 91.181282,277.088715 91.757370,277.091156 
	C105.622398,277.150208 119.487175,277.266663 133.661957,277.640503 
	C119.632477,277.937744 105.293053,277.967194 90.489624,277.951630 
z"/>
<path fill="#BD381D" opacity="1.000000" stroke="none" 
	d="
M41.011356,267.954498 
	C41.011356,267.954498 40.545101,267.967804 40.311974,267.964050 
	C40.078842,258.212921 40.078842,248.465530 40.078842,237.881958 
	C43.183865,237.881958 46.090324,237.881958 49.445217,237.853790 
	C49.910183,238.023285 49.926723,238.220917 49.494274,238.712402 
	C39.830929,239.085373 41.082634,237.958481 41.010727,247.231125 
	C40.957165,254.138504 41.007370,261.046661 41.011356,267.954498 
z"/>
<path fill="#57111E" opacity="1.000000" stroke="none" 
	d="
M49.455429,277.985199 
	C48.987514,277.946686 49.044144,277.501678 49.386459,277.262756 
	C50.150711,277.014313 50.572643,277.004761 50.994579,276.995239 
	C62.447189,277.121216 73.899796,277.247192 85.662292,277.641144 
	C73.955902,277.947327 61.939625,277.985504 49.455429,277.985199 
z"/>
<path fill="#57111E" opacity="1.000000" stroke="none" 
	d="
M154.489227,277.953796 
	C159.907257,277.605499 165.786346,277.158600 171.672211,277.035187 
	C178.987976,276.881775 178.990402,276.997253 179.208481,269.444855 
	C179.418106,268.981323 179.838364,268.948456 179.838364,268.948456 
	C180.299347,278.032776 180.299347,278.036804 171.296310,278.031464 
	C165.848633,278.028229 160.400955,278.010132 154.489227,277.953796 
z"/>
<path fill="#57111C" opacity="1.000000" stroke="none" 
	d="
M30.697161,68.360336 
	C31.020245,77.726547 31.015995,87.346512 31.019171,97.423180 
	C30.670883,96.523476 30.004414,95.165733 30.010206,93.810860 
	C30.046120,85.411575 30.233038,77.012932 30.697161,68.360336 
z"/>
<path fill="#750704" opacity="1.000000" stroke="none" 
	d="
M179.877228,268.612885 
	C179.838364,268.948456 179.418106,268.981323 179.207825,268.996521 
	C169.874435,268.887238 160.751328,268.762695 151.754303,268.333282 
	C154.599609,267.980469 157.318802,267.932526 160.038010,267.884583 
	C166.398193,267.698364 172.758362,267.512115 179.477463,267.127991 
	C179.862961,267.379181 179.889542,267.828247 179.877228,268.612885 
z"/>
<path fill="#57111C" opacity="1.000000" stroke="none" 
	d="
M179.011383,246.986969 
	C179.131836,237.873703 179.252274,228.760437 179.641907,219.338455 
	C179.940475,228.044724 179.969864,237.059723 179.733261,246.537170 
	C179.467270,246.999634 179.011383,246.986969 179.011383,246.986969 
z"/>
<path fill="#BE9B83" opacity="1.000000" stroke="none" 
	d="
M180.105591,217.233246 
	C190.443237,216.856308 188.817795,218.338165 189.008698,208.040771 
	C189.060333,205.254700 189.219772,202.470627 189.584076,199.364349 
	C189.894516,204.351181 189.956650,209.659256 190.000290,214.967453 
	C190.006927,215.774918 189.927856,216.583054 189.858124,218.012085 
	C186.803787,218.012085 183.881485,218.012085 180.505737,217.988617 
	C180.052292,217.965164 180.046814,217.472488 180.105591,217.233246 
z"/>
<path fill="#100000" opacity="1.000000" stroke="none" 
	d="
M188.983948,187.290497 
	C189.016846,187.027969 189.493057,186.998077 189.731293,186.989441 
	C190.145935,190.481400 190.322372,193.981979 190.199066,197.765747 
	C189.899353,198.048904 189.461990,197.984085 189.233917,197.483093 
	C188.959824,194.013290 188.913788,191.044449 188.867767,188.075623 
	C188.895538,187.901428 188.923309,187.727234 188.983948,187.290497 
z"/>
<path fill="#74040D" opacity="1.000000" stroke="none" 
	d="
M178.561325,246.992401 
	C179.011383,246.986969 179.467270,246.999634 179.694672,247.005127 
	C179.939789,247.467621 179.957489,247.924652 179.919800,248.721100 
	C176.640884,248.628723 173.417328,248.196899 170.126541,247.373138 
	C172.743286,246.986740 175.427277,246.992294 178.561325,246.992401 
z"/>
<path fill="#57111C" opacity="1.000000" stroke="none" 
	d="
M40.150368,127.372375 
	C43.345261,127.417107 46.578949,127.861481 49.883125,128.703613 
	C46.698795,128.658249 43.443977,128.215134 40.150368,127.372375 
z"/>
<path fill="#57111C" opacity="1.000000" stroke="none" 
	d="
M40.047020,106.491211 
	C40.268829,111.803322 40.446251,117.578476 40.355259,123.662506 
	C40.058769,118.299011 40.030701,112.626633 40.047020,106.491211 
z"/>
<path fill="#57111C" opacity="1.000000" stroke="none" 
	d="
M50.513382,68.034912 
	C45.531662,68.257759 40.086544,68.437920 34.333588,68.347946 
	C39.367157,68.049278 44.708569,68.020752 50.513382,68.034912 
z"/>
<path fill="#57111E" opacity="1.000000" stroke="none" 
	d="
M138.481140,277.953003 
	C141.805359,277.731537 145.585526,277.554810 149.668610,277.641998 
	C146.293381,277.936523 142.615250,277.967163 138.481140,277.953003 
z"/>
<path fill="#750704" opacity="1.000000" stroke="none" 
	d="
M50.113617,137.229935 
	C53.138378,137.009903 56.110020,137.000214 59.529251,137.208221 
	C59.976845,137.425949 59.953075,137.869141 59.965202,137.925476 
	C59.977325,137.981796 60.029602,138.082001 59.573433,138.048431 
	C56.085739,138.093750 53.054211,138.172653 50.022686,138.251572 
	C50.022686,138.251572 49.940006,138.064819 49.971031,137.967499 
	C50.002056,137.870163 50.060493,137.440262 50.113617,137.229935 
z"/>
<path fill="#E0BAA4" opacity="1.000000" stroke="none" 
	d="
M169.910400,125.548203 
	C169.717896,123.503059 169.599838,121.020859 169.769745,118.284286 
	C170.033447,120.390327 170.009155,122.750732 169.910400,125.548203 
z"/>
<path fill="#57111C" opacity="1.000000" stroke="none" 
	d="
M57.588028,68.056137 
	C56.810623,68.254402 55.638451,68.411568 54.245094,68.335297 
	C55.080360,68.072914 56.136810,68.043976 57.588028,68.056137 
z"/>
<path fill="#100000" opacity="1.000000" stroke="none" 
	d="
M39.111721,98.312332 
	C39.338509,98.134171 39.589424,98.275642 39.815914,98.773178 
	C39.605961,98.884384 39.387417,98.718636 39.111721,98.312332 
z"/>
<path fill="#210000" opacity="1.000000" stroke="none" 
	d="
M50.703682,218.094879 
	C50.947845,218.493591 50.789440,218.752197 50.246849,218.974564 
	C50.016174,219.032333 49.984081,218.612946 49.976521,218.402847 
	C50.130852,218.144760 50.292740,218.096756 50.703682,218.094879 
z"/>
<path fill="#DE2C09" opacity="1.000000" stroke="none" 
	d="
M139.976868,207.956879 
	C135.006836,207.971176 130.026123,208.190750 125.070244,207.932953 
	C121.305534,207.737106 119.308624,208.735703 119.996178,212.851273 
	C120.700783,217.068939 118.787796,218.460510 114.726059,218.067230 
	C112.804871,217.881226 110.390366,217.209946 109.956299,220.687180 
	C109.038765,228.037399 108.896172,228.019592 100.465019,227.525238 
	C100.002434,218.040848 100.002434,218.041016 91.024857,217.990479 
	C90.700233,217.988647 90.375664,217.977585 90.051071,217.970825 
	C90.034668,216.641541 90.091202,215.306534 89.987312,213.984131 
	C89.739532,210.830078 90.630684,208.952835 94.296822,208.878616 
	C98.632126,208.790833 100.650055,206.675705 100.101395,201.931595 
	C99.608200,197.667007 99.985474,193.301758 99.982063,188.072235 
	C100.182358,182.333786 100.661469,177.472107 93.313637,177.706497 
	C92.242859,177.740646 91.093071,175.297607 89.986198,173.625717 
	C89.989731,172.500412 89.986900,171.750229 89.979584,170.631073 
	C88.982971,169.516754 87.990837,168.771408 86.566940,168.019684 
	C84.135399,167.995422 82.135620,167.977554 80.089966,167.516022 
	C79.996346,164.397552 79.948601,161.722748 79.936172,158.583557 
	C79.979919,157.302734 79.917709,156.478394 80.008369,155.671204 
	C80.557564,150.781296 80.277840,146.784149 73.467880,147.802490 
	C72.098442,148.007263 70.495789,146.652374 69.002022,145.617340 
	C69.340408,143.153519 69.677437,141.088928 70.481201,139.018677 
	C76.960190,139.016022 82.972427,139.018997 88.990211,139.459595 
	C89.361526,142.591049 89.727287,145.284927 90.544983,147.986359 
	C93.904060,147.993912 96.811203,147.993912 99.764366,147.993912 
	C99.967628,151.836365 100.122017,154.754776 100.270897,157.569199 
	C108.952263,158.578079 108.952263,158.578079 110.710663,168.074127 
	C113.353828,168.074127 116.133995,168.074127 118.940849,168.520401 
	C118.983154,171.121841 118.677963,173.347549 119.130852,175.406540 
	C119.417320,176.708939 120.835869,178.766632 121.744507,178.765488 
	C127.807549,178.757874 133.869995,178.286972 140.236176,177.696503 
	C140.712662,174.351273 140.885590,171.276093 141.427277,168.156967 
	C142.537949,168.121796 143.279877,168.130569 144.302704,168.382156 
	C147.884949,168.769363 149.705154,170.124390 149.072723,173.780853 
	C148.957336,174.447968 149.587585,175.244064 150.074615,176.325394 
	C153.522598,177.075134 156.769577,177.480103 160.001144,177.943481 
	C159.985718,178.001877 159.975479,178.122238 159.984528,178.567749 
	C159.983292,181.986145 159.972992,184.959045 159.962677,187.931946 
	C159.855209,194.357147 159.747757,200.782364 159.366791,207.600037 
	C157.064819,207.991714 155.036362,207.990921 153.005203,207.561829 
	C152.686050,203.348862 154.256058,198.528839 147.545776,198.005920 
	C140.009628,198.001617 140.010269,198.001617 139.997345,205.034805 
	C139.995560,206.008850 139.983932,206.982849 139.976868,207.956879 
z"/>
<path fill="#660A16" opacity="1.000000" stroke="none" 
	d="
M79.900848,159.047958 
	C79.948601,161.722748 79.996346,164.397552 80.041840,167.969101 
	C80.064728,171.588028 80.089874,174.310181 80.078735,177.259094 
	C80.042465,177.485840 80.061401,177.944687 80.061401,177.944687 
	C80.024635,183.983215 79.987862,190.021729 79.736687,196.640442 
	C79.278091,197.412369 79.102943,197.654114 78.996834,197.945892 
	C76.635674,197.976074 74.274513,198.006256 71.187164,198.029053 
	C70.270416,198.006805 70.079849,197.991928 69.930298,197.536255 
	C70.026894,189.723755 70.023720,189.752106 62.758614,188.938232 
	C61.856915,188.837204 61.010475,188.242920 60.138428,187.877197 
	C60.138432,187.877197 60.023144,187.880081 60.012245,187.481415 
	C59.962147,183.751907 59.922943,180.421066 59.925774,176.643951 
	C59.933239,173.806717 59.898666,171.415710 59.911858,168.784805 
	C59.959621,168.544891 59.981834,168.056168 60.432171,168.028473 
	C63.586800,167.970795 66.291092,167.940811 69.211105,167.831207 
	C69.698608,167.570450 69.860115,167.318558 69.930176,166.542877 
	C70.015549,157.161942 71.587395,156.049713 79.900848,159.047958 
z"/>
<path fill="#DF2D0B" opacity="1.000000" stroke="none" 
	d="
M41.464687,267.972137 
	C41.007370,261.046661 40.957165,254.138504 41.010727,247.231125 
	C41.082634,237.958481 39.830929,239.085373 49.494419,239.009903 
	C49.961380,243.443481 50.268616,247.896576 49.916370,252.296875 
	C49.557674,256.777740 50.998039,258.751648 55.609425,258.026123 
	C56.728767,257.850006 57.902130,258.017273 59.518375,258.486877 
	C59.975704,261.925323 59.965309,264.903503 59.504429,267.927490 
	C55.767185,268.084351 52.480427,268.195374 49.193672,268.306366 
	C46.768456,268.200836 44.343239,268.095306 41.464687,267.972137 
z"/>
<path fill="#C52508" opacity="1.000000" stroke="none" 
	d="
M89.979843,174.000824 
	C91.093071,175.297607 92.242859,177.740646 93.313637,177.706497 
	C100.661469,177.472107 100.182358,182.333786 99.970184,187.607056 
	C99.625404,188.039200 99.295860,188.020782 98.966164,188.017517 
	C90.890587,187.937546 90.914658,187.934769 89.929588,180.157974 
	C89.841034,179.458847 89.175850,178.832764 88.390198,177.701691 
	C88.661232,176.154022 89.320541,175.077423 89.979843,174.000824 
z"/>
<path fill="#C52508" opacity="1.000000" stroke="none" 
	d="
M160.423431,187.957550 
	C159.972992,184.959045 159.983292,181.986145 160.424820,178.520020 
	C163.884247,177.668152 166.912460,177.309525 169.940659,176.950897 
	C169.959030,177.606705 170.001602,178.262878 169.992172,178.918289 
	C169.840332,189.465195 171.458206,187.867157 160.423431,187.957550 
z"/>
<path fill="#C42508" opacity="1.000000" stroke="none" 
	d="
M160.024460,267.441742 
	C157.318802,267.932526 154.599609,267.980469 151.428986,268.074158 
	C150.977570,268.119934 150.511551,268.024994 150.279175,267.975647 
	C150.035965,267.601105 150.012604,267.275787 150.016129,266.950745 
	C150.129501,256.500793 148.648041,258.149323 159.576340,258.039062 
	C160.028610,261.039276 160.019760,264.019073 160.024460,267.441742 
z"/>
<path fill="#C42405" opacity="1.000000" stroke="none" 
	d="
M90.033043,218.427734 
	C90.375664,217.977585 90.700233,217.988647 91.024857,217.990479 
	C100.002434,218.041016 100.002434,218.040848 100.008728,227.512802 
	C96.978958,227.976837 93.940926,227.987198 90.451416,227.998779 
	C89.999939,228.000000 90.009758,228.006607 90.009758,228.006607 
	C90.011513,224.965942 90.013268,221.925293 90.033043,218.427734 
z"/>
<path fill="#C2230A" opacity="1.000000" stroke="none" 
	d="
M89.996681,227.995117 
	C89.995346,229.310913 90.001106,230.631577 89.998520,231.952255 
	C89.986916,237.885376 87.917236,239.698196 82.270042,237.702408 
	C80.976479,237.245255 80.283623,233.849655 80.173080,231.760956 
	C80.109550,230.560379 81.545738,228.536804 82.704735,228.181427 
	C84.668114,227.579391 86.946571,228.004883 89.551163,228.002533 
	C90.009758,228.006607 89.999939,228.000000 89.996681,227.995117 
z"/>
<path fill="#A86C02" opacity="1.000000" stroke="none" 
	d="
M169.963196,176.507263 
	C166.912460,177.309525 163.884247,177.668152 160.415771,178.074509 
	C159.975479,178.122238 159.985718,178.001877 159.994568,177.504761 
	C159.910904,166.866440 159.719208,168.062195 168.944077,167.978867 
	C169.269455,167.975922 169.594620,167.945999 169.919876,167.928650 
	C169.919876,167.928665 169.999451,168.002090 170.040497,168.038269 
	C170.049591,170.737503 170.017654,173.400574 169.963196,176.507263 
z"/>
<path fill="#681A07" opacity="1.000000" stroke="none" 
	d="
M60.424126,217.934906 
	C59.983273,214.908981 59.990181,211.920715 60.019257,208.482468 
	C60.041424,208.032501 60.009659,208.026062 60.467644,208.015503 
	C63.596851,207.970688 66.268074,207.936432 68.959045,208.361710 
	C68.969940,211.871719 68.961090,214.922195 68.952240,217.972687 
	C66.258789,217.972656 63.565334,217.972610 60.424126,217.934906 
z"/>
<path fill="#C62304" opacity="1.000000" stroke="none" 
	d="
M140.429291,207.974915 
	C139.983932,206.982849 139.995560,206.008850 139.997345,205.034805 
	C140.010269,198.001617 140.009628,198.001617 147.548065,198.437805 
	C148.336166,201.902939 148.673920,204.934769 149.011688,207.966599 
	C146.301697,207.975388 143.591705,207.984161 140.429291,207.974915 
z"/>
<path fill="#C42405" opacity="1.000000" stroke="none" 
	d="
M89.986206,173.625717 
	C89.320541,175.077423 88.661232,176.154022 88.001472,177.600739 
	C85.954659,177.974091 83.908302,177.977310 81.326065,177.773605 
	C80.618309,177.321396 80.393250,177.143280 80.115021,177.032349 
	C80.089874,174.310181 80.064728,171.588028 80.087715,168.412781 
	C82.135620,167.977554 84.135399,167.995422 86.606583,168.354477 
	C88.046677,169.463791 89.015373,170.231918 89.984070,171.000031 
	C89.986900,171.750229 89.989731,172.500412 89.986206,173.625717 
z"/>
<path fill="#C42405" opacity="1.000000" stroke="none" 
	d="
M59.954918,267.881653 
	C59.965309,264.903503 59.975704,261.925323 59.973324,258.502869 
	C61.038887,258.043518 62.117226,258.028412 63.639225,258.376129 
	C65.080849,261.571960 66.260300,264.201874 69.970306,264.000000 
	C69.975220,264.752472 69.980133,265.504944 69.773895,266.736694 
	C69.310249,267.397705 69.122620,267.631500 68.999863,267.917358 
	C68.999863,267.917358 69.009949,268.024384 68.556755,268.030579 
	C65.387344,267.985046 62.671131,267.933350 59.954918,267.881653 
z"/>
<path fill="#C3230F" opacity="1.000000" stroke="none" 
	d="
M159.973373,216.008850 
	C158.000824,219.986816 154.425125,217.815948 151.791229,217.540817 
	C150.975571,217.455597 150.592545,213.228989 150.390747,210.456024 
	C152.859894,211.582794 154.910934,213.208069 157.058609,214.693649 
	C157.920883,215.290070 158.995438,215.579620 159.973373,216.008850 
z"/>
<path fill="#C42405" opacity="1.000000" stroke="none" 
	d="
M159.983673,215.563141 
	C158.995438,215.579620 157.920883,215.290070 157.058609,214.693649 
	C154.910934,213.208069 152.859894,211.582794 150.399902,210.007721 
	C150.015503,209.561279 150.001251,209.120728 150.358124,208.342972 
	C151.488800,208.000565 152.248352,207.995346 153.007889,207.990143 
	C155.036362,207.990921 157.064819,207.991714 159.525696,207.983337 
	C159.970062,210.355255 159.982025,212.736359 159.983673,215.563141 
z"/>
<path fill="#D12907" opacity="1.000000" stroke="none" 
	d="
M153.005203,207.561829 
	C152.248352,207.995346 151.488800,208.000565 150.348846,208.012543 
	C149.968445,208.019287 149.489822,207.995499 149.250763,207.981049 
	C148.673920,204.934769 148.336166,201.902939 147.996124,198.439209 
	C154.256058,198.528839 152.686050,203.348862 153.005203,207.561829 
z"/>
<path fill="#9A0B09" opacity="1.000000" stroke="none" 
	d="
M69.351151,217.887604 
	C68.961090,214.922195 68.969940,211.871719 68.982056,207.922729 
	C69.286644,204.008499 69.587967,200.992767 69.889282,197.977036 
	C70.079849,197.991928 70.270416,198.006805 70.745941,198.057281 
	C71.020668,203.189301 71.101891,208.288544 70.943291,213.380310 
	C70.897034,214.865326 70.166794,216.329056 69.351151,217.887604 
z"/>
<path fill="#C3230F" opacity="1.000000" stroke="none" 
	d="
M69.981094,263.570526 
	C66.260300,264.201874 65.080849,261.571960 64.042877,258.385895 
	C67.815231,257.606415 70.999062,257.916901 69.981094,263.570526 
z"/>
<path fill="#9A0B09" opacity="1.000000" stroke="none" 
	d="
M181.124313,198.085678 
	C180.732971,201.100845 180.341614,204.116013 179.886612,207.566803 
	C179.822968,208.002441 179.409378,208.016068 178.952728,208.023102 
	C178.329727,208.041901 178.163345,208.053650 177.996979,208.065399 
	C177.554489,208.047897 177.112000,208.030411 176.338455,207.989441 
	C177.004120,206.138367 178.662430,204.382004 178.868362,202.469254 
	C179.398010,197.549500 179.283997,192.560425 179.716003,187.297455 
	C180.275299,187.191238 180.545776,187.386612 180.756104,188.165588 
	C180.838745,191.861359 180.981537,194.973526 181.124313,198.085678 
z"/>
<path fill="#AC6319" opacity="1.000000" stroke="none" 
	d="
M179.199524,167.931046 
	C179.077576,161.499207 179.188599,155.107849 179.538696,148.392242 
	C179.848267,154.394409 179.918732,160.720840 179.947250,167.513062 
	C179.905304,167.978836 179.432480,167.971542 179.199524,167.931046 
z"/>
<path fill="#99080B" opacity="1.000000" stroke="none" 
	d="
M111.018417,267.487610 
	C106.996925,265.688141 109.919350,261.867279 108.959923,258.478821 
	C113.013252,260.260345 110.088501,264.095001 111.018417,267.487610 
z"/>
<path fill="#C3230F" opacity="1.000000" stroke="none" 
	d="
M69.235847,267.947510 
	C69.122620,267.631500 69.310249,267.397705 69.764870,267.112854 
	C69.967003,267.009766 69.975258,267.483734 69.961212,267.720032 
	C69.947159,267.956329 69.471832,267.977661 69.235847,267.947510 
z"/>
<path fill="#74040D" opacity="1.000000" stroke="none" 
	d="
M170.784363,208.139343 
	C170.893555,208.347763 170.711395,208.592651 170.253510,208.893158 
	C170.118622,208.676071 170.290375,208.418427 170.784363,208.139343 
z"/>
<path fill="#74040D" opacity="1.000000" stroke="none" 
	d="
M79.212112,197.856430 
	C79.102943,197.654114 79.278091,197.412369 79.717567,197.108078 
	C79.858536,197.320328 79.696709,197.577484 79.212112,197.856430 
z"/>
<path fill="#C52508" opacity="1.000000" stroke="none" 
	d="
M80.078743,177.259094 
	C80.393250,177.143280 80.618309,177.321396 80.887680,177.761185 
	C80.985161,177.955688 80.522591,177.969025 80.291992,177.956848 
	C80.061401,177.944687 80.042465,177.485840 80.078743,177.259094 
z"/>
<path fill="#C59877" opacity="1.000000" stroke="none" 
	d="
M60.103889,78.379822 
	C62.821407,77.948410 65.465912,77.962555 68.769424,77.871307 
	C69.697662,77.577278 69.860435,77.320999 69.916748,76.997078 
	C69.941315,74.633209 69.965881,72.269348 70.212204,69.357941 
	C70.701942,68.623177 70.888847,68.374916 71.438286,68.046303 
	C74.250999,68.014824 76.620094,68.002663 78.994751,67.995461 
	C79.000313,68.000412 79.010147,68.007431 79.169159,68.385239 
	C79.796608,71.650749 79.295792,75.844093 80.979858,77.094299 
	C83.065628,78.642715 86.962959,77.750900 90.540192,77.941833 
	C97.285294,78.291351 103.567886,78.612320 109.914734,79.360611 
	C109.697739,82.502457 109.416489,85.216980 109.135231,87.931511 
	C103.999474,87.955559 98.861145,88.085449 93.728973,87.961327 
	C90.944412,87.893990 89.859116,88.920013 89.965614,91.717583 
	C90.116760,95.688148 90.211174,99.683228 89.939041,103.640968 
	C89.689018,107.277130 91.252548,108.508064 94.568840,107.988327 
	C99.010574,107.292236 100.482071,109.138535 100.074806,113.505219 
	C99.722496,117.282623 99.840363,121.132156 100.121872,124.922226 
	C100.200706,125.983521 101.416504,127.534233 102.419579,127.836861 
	C104.702217,128.525543 108.549614,127.800606 109.266678,129.064911 
	C110.493446,131.227890 109.808838,134.474930 109.426208,137.695145 
	C102.955551,138.160614 96.985603,138.197678 90.747879,138.178757 
	C90.297997,138.131805 90.115883,138.140839 89.925606,138.106567 
	C89.917442,138.063263 89.984192,138.005753 89.687668,137.714203 
	C82.984734,137.277481 76.578331,137.132294 70.109131,136.535583 
	C70.046333,133.517670 70.046333,130.951294 70.046333,127.902313 
	C66.255867,127.902313 63.163269,127.902313 60.070667,127.902313 
	C60.070667,127.902313 60.014759,127.943451 60.016495,127.499222 
	C60.018230,120.805244 60.018230,114.555504 60.018230,108.165466 
	C57.983528,108.165466 56.515446,108.165466 55.047359,108.165466 
	C52.850136,107.788658 49.836765,108.597672 50.360138,104.012589 
	C50.783245,101.198128 51.160698,99.067184 50.948135,96.996826 
	C50.461853,92.260307 50.887005,88.362083 56.947239,88.171005 
	C62.586605,86.577377 58.928291,81.915939 60.103889,78.379822 
z"/>
<path fill="#DC9B01" opacity="1.000000" stroke="none" 
	d="
M91.015656,138.234741 
	C96.985603,138.197678 102.955551,138.160614 109.376785,138.162903 
	C109.828064,138.202225 109.940933,138.607468 109.979187,139.264282 
	C110.017441,142.457657 110.017441,144.994217 110.017441,148.045731 
	C113.437767,148.045731 116.166389,148.045731 118.927765,148.495102 
	C118.976372,151.095078 118.679871,153.312622 119.121307,155.371994 
	C119.401009,156.676788 120.770592,158.750397 121.667297,158.758682 
	C127.735451,158.814880 133.807846,158.412064 139.915527,158.598297 
	C139.950699,162.001221 139.949234,164.963501 139.711639,167.960266 
	C139.475525,167.994751 138.999298,168.035385 138.531555,168.022400 
	C132.379089,168.013733 126.694382,168.018051 120.660446,168.016907 
	C119.845535,168.032333 119.379852,168.053238 118.914162,168.074127 
	C116.133995,168.074127 113.353828,168.074127 110.710663,168.074127 
	C108.952263,158.578079 108.952263,158.578079 100.270897,157.569199 
	C100.122017,154.754776 99.967628,151.836365 99.764366,147.993912 
	C96.811203,147.993912 93.904060,147.993912 90.512573,147.538269 
	C90.060883,144.384857 90.093552,141.687103 90.304367,138.901184 
	C90.708954,138.665161 90.886665,138.472397 91.015656,138.234741 
z"/>
<path fill="#C49878" opacity="1.000000" stroke="none" 
	d="
M150.943695,77.885925 
	C153.343643,77.930908 155.743607,77.975891 158.735580,78.423553 
	C159.591568,81.849869 159.855530,84.873520 160.033783,87.974426 
	C159.948090,88.051689 159.774689,88.203979 159.774689,88.203979 
	C146.790558,88.126022 133.806412,88.048073 120.396385,87.504089 
	C119.941513,84.056541 119.912537,81.075027 120.358292,78.059631 
	C130.869919,77.979149 140.906799,77.932541 150.943695,77.885925 
z"/>
<path fill="#F3F3F3" opacity="1.000000" stroke="none" 
	d="
M160.072205,128.958725 
	C160.044708,131.668350 160.017227,134.377960 159.515656,137.543762 
	C151.225632,138.000748 143.408707,137.934265 135.594513,138.051056 
	C133.710938,138.079193 131.836411,138.714279 129.585052,138.902649 
	C126.495682,138.439926 123.779007,138.144775 121.062332,137.849640 
	C120.117455,134.746033 118.052437,131.506729 122.751511,128.910034 
	C123.645081,128.647766 123.848000,128.422455 123.978859,128.132248 
	C125.062477,128.100983 126.146095,128.069717 127.923447,128.328476 
	C131.401001,128.442596 134.184799,128.266678 136.968613,128.090759 
	C141.678650,128.067581 146.388702,128.044418 151.855652,128.316986 
	C155.062622,128.742325 157.512680,128.871918 159.987091,128.983093 
	C160.011444,128.964676 160.072205,128.958725 160.072205,128.958725 
z"/>
<path fill="#DF2D09" opacity="1.000000" stroke="none" 
	d="
M120.728104,137.990158 
	C123.779007,138.144775 126.495682,138.439926 129.606018,139.355042 
	C129.999664,142.524551 129.999664,145.074051 129.999664,147.404114 
	C133.649567,147.982300 136.765945,148.475983 139.924805,149.408585 
	C139.928497,151.906738 139.889740,153.965973 139.655899,156.110321 
	C139.256683,156.411377 139.146973,156.667740 138.655334,156.975311 
	C133.700424,156.990402 129.218414,156.890213 124.744545,157.037338 
	C121.967201,157.128693 121.011543,156.081436 120.885727,153.292053 
	C120.805672,151.516968 119.597397,149.792755 118.895012,148.045731 
	C116.166389,148.045731 113.437767,148.045731 110.017441,148.045731 
	C110.017441,144.994217 110.017441,142.457657 110.032745,139.467682 
	C113.496658,138.719727 116.945274,138.425201 120.728104,137.990158 
z"/>
<path fill="#030000" opacity="1.000000" stroke="none" 
	d="
M119.883560,78.093506 
	C119.912537,81.075027 119.941513,84.056541 119.920021,87.482285 
	C119.869553,87.926506 119.449944,88.004593 118.840668,88.023285 
	C115.510391,88.317513 112.789383,88.593056 110.068375,88.868599 
	C110.037216,88.526749 109.877396,88.262802 109.362076,88.004135 
	C109.416489,85.216980 109.697739,82.502457 110.145912,78.998718 
	C113.503075,78.170845 116.693321,78.132172 119.883560,78.093506 
z"/>
<path fill="#C6997A" opacity="1.000000" stroke="none" 
	d="
M179.963562,78.091118 
	C179.944427,81.124313 179.925308,84.157501 179.817352,87.646179 
	C176.851547,88.092094 173.974579,88.082527 170.580368,88.058716 
	C170.063126,88.044479 169.890976,87.890640 169.946808,87.655930 
	C170.002625,87.421211 170.166916,86.967522 170.404312,86.686417 
	C170.479645,84.276169 170.317596,82.147034 170.085571,79.705780 
	C169.992630,78.968712 169.969635,78.543755 170.403046,78.095642 
	C173.894150,78.078697 176.928848,78.084908 179.963562,78.091118 
z"/>
<path fill="#C59877" opacity="1.000000" stroke="none" 
	d="
M170.149963,88.120529 
	C170.157181,89.845329 170.192825,91.510246 169.964539,93.138145 
	C169.748444,94.679070 169.491104,97.362068 168.842484,97.491531 
	C166.321564,97.994698 163.626968,97.796227 161.025436,97.553749 
	C160.613556,97.515366 160.135300,95.926109 160.058258,95.022316 
	C159.890167,93.049843 159.960495,91.057060 159.854050,88.638275 
	C159.774689,88.203979 159.948090,88.051689 160.380112,88.166504 
	C163.838409,88.151093 166.864700,88.020866 169.890976,87.890640 
	C169.890976,87.890640 170.063126,88.044479 170.149963,88.120529 
z"/>
<path fill="#C69877" opacity="1.000000" stroke="none" 
	d="
M110.047974,89.331665 
	C112.789383,88.593056 115.510391,88.317513 118.640793,88.098053 
	C119.364830,89.416695 119.876671,90.666397 119.960060,91.944054 
	C120.325188,97.539139 117.021751,99.925529 111.741463,97.794975 
	C110.954430,97.477402 110.233276,96.176125 110.097618,95.240616 
	C109.839325,93.459389 110.025780,91.613678 110.047974,89.331665 
z"/>
<path fill="#E0BAA4" opacity="1.000000" stroke="none" 
	d="
M163.744965,127.733963 
	C162.932266,128.333511 161.859604,128.661072 160.429581,128.973679 
	C160.072205,128.958725 160.011444,128.964676 159.804962,128.700409 
	C158.724106,128.241440 157.849747,128.046738 156.975372,127.852051 
	C159.145248,127.722015 161.315140,127.591995 163.744965,127.733963 
z"/>
<path fill="#FDECE9" opacity="1.000000" stroke="none" 
	d="
M136.524292,128.046188 
	C134.184799,128.266678 131.401001,128.442596 128.329041,128.362396 
	C130.720581,128.071381 133.400284,128.036499 136.524292,128.046188 
z"/>
<path fill="#FDECE9" opacity="1.000000" stroke="none" 
	d="
M156.564377,127.892822 
	C157.849747,128.046738 158.724106,128.241440 159.780609,128.718811 
	C157.512680,128.871918 155.062622,128.742325 152.322906,128.351349 
	C153.406616,128.037857 154.779999,127.985725 156.564377,127.892822 
z"/>
<path fill="#FDECE9" opacity="1.000000" stroke="none" 
	d="
M123.746384,128.182022 
	C123.848000,128.422455 123.645081,128.647766 123.153175,128.889496 
	C123.039421,128.654526 123.231972,128.408203 123.746384,128.182022 
z"/>
<path fill="#FFDBBE" opacity="1.000000" stroke="none" 
	d="
M120.358292,78.059631 
	C116.693321,78.132172 113.503075,78.170845 110.081650,78.571404 
	C103.567886,78.612320 97.285294,78.291351 90.513306,77.496689 
	C90.014214,74.013474 90.004517,71.003952 89.997147,67.996918 
	C89.999474,67.999390 90.000183,68.000488 90.457428,68.000839 
	C100.931244,68.000877 101.978416,66.710609 98.978348,58.065620 
	C99.148018,58.051613 99.317680,58.037609 99.741692,58.001083 
	C103.023209,57.649818 106.050385,57.321072 109.775658,57.264946 
	C113.344330,57.347095 116.214897,57.156620 119.285065,57.089661 
	C119.735237,57.417995 119.910553,57.674309 120.015152,58.237389 
	C120.028549,58.662643 120.037384,58.832623 120.029556,59.457207 
	C120.009308,60.732620 120.113251,61.570740 119.984375,62.371376 
	C119.245392,66.962303 121.200760,68.441216 125.707298,68.080399 
	C130.438919,67.701546 135.221832,67.963142 140.225525,67.959541 
	C140.468704,67.974220 140.955933,67.970215 140.955933,67.970215 
	C141.285645,67.980202 141.615311,67.996193 141.945099,67.999306 
	C149.437012,68.069885 149.426361,68.070549 150.051926,75.284180 
	C150.107056,75.920059 150.422623,76.533356 150.780457,77.521538 
	C140.906799,77.932541 130.869919,77.979149 120.358292,78.059631 
z"/>
<path fill="#E8B499" opacity="1.000000" stroke="none" 
	d="
M119.085472,56.966141 
	C116.214897,57.156620 113.344330,57.347095 110.186951,57.246544 
	C109.925285,56.629047 109.966805,56.302895 109.973183,55.976055 
	C110.129684,47.956154 110.129021,47.956142 118.505905,48.328735 
	C119.313278,49.101810 119.632187,49.565617 119.951096,50.029419 
	C119.963120,50.461063 119.975143,50.892704 119.689636,51.894230 
	C119.289894,53.964790 119.187683,55.465466 119.085472,56.966141 
z"/>
<path fill="#FCF0E4" opacity="1.000000" stroke="none" 
	d="
M122.978760,57.886681 
	C128.432114,57.713093 133.885452,57.539509 139.646927,57.630096 
	C139.955048,57.894276 139.964172,57.999798 139.573502,58.014515 
	C138.134201,58.061169 137.085556,58.093102 135.690720,58.097664 
	C134.881577,58.087532 134.418655,58.104774 133.503036,58.079777 
	C129.693161,57.987251 126.335960,57.936966 122.978760,57.886681 
z"/>
<path fill="#E0BAA4" opacity="1.000000" stroke="none" 
	d="
M122.654831,57.914757 
	C126.335960,57.936966 129.693161,57.987251 133.193085,58.339046 
	C128.905945,58.761238 124.476082,58.881916 120.046219,59.002598 
	C120.037384,58.832623 120.028549,58.662643 120.273788,58.217705 
	C120.697205,57.907295 120.866547,57.871841 121.035889,57.836380 
	C121.467560,57.871864 121.899239,57.907349 122.654831,57.914757 
z"/>
<path fill="#FCF0E4" opacity="1.000000" stroke="none" 
	d="
M121.026367,57.446335 
	C120.866547,57.871841 120.697205,57.907295 120.269226,57.962433 
	C119.910553,57.674309 119.735237,57.417995 119.285065,57.089661 
	C119.187683,55.465466 119.289894,53.964790 119.674057,52.217819 
	C120.309624,53.666447 120.663239,55.361366 121.026367,57.446335 
z"/>
<path fill="#FCF0E4" opacity="1.000000" stroke="none" 
	d="
M120.181274,49.851173 
	C119.632187,49.565617 119.313278,49.101810 118.942307,48.346764 
	C119.397316,48.594658 119.904381,49.133793 120.181274,49.851173 
z"/>
<path fill="#74040D" opacity="1.000000" stroke="none" 
	d="
M59.504429,267.927490 
	C62.671131,267.933350 65.387344,267.985046 68.551956,268.084106 
	C65.435699,268.422791 61.874519,268.899689 58.305653,268.966553 
	C51.014030,269.103180 51.012329,269.012360 50.995956,276.546753 
	C50.572643,277.004761 50.150711,277.014313 49.414062,277.040161 
	C49.090862,274.417206 49.082371,271.777924 49.133774,268.722504 
	C52.480427,268.195374 55.767185,268.084351 59.504429,267.927490 
z"/>
<path fill="#7C1B0B" opacity="1.000000" stroke="none" 
	d="
M60.048065,128.359238 
	C63.163269,127.902313 66.255867,127.902313 70.046333,127.902313 
	C70.046333,130.951294 70.046333,133.517670 70.052635,136.765076 
	C70.058937,137.446106 70.065376,137.918503 70.005623,137.910278 
	C69.945869,137.902054 69.846115,137.969894 69.401108,137.980621 
	C65.955101,137.950607 62.954086,137.909866 59.953075,137.869141 
	C59.953075,137.869141 59.976845,137.425949 59.979660,137.203827 
	C59.996807,134.259872 60.011135,131.538010 60.048065,128.359238 
z"/>
<path fill="#5E0D0D" opacity="1.000000" stroke="none" 
	d="
M55.331184,108.409210 
	C56.515446,108.165466 57.983528,108.165466 60.018230,108.165466 
	C60.018230,114.555504 60.018230,120.805244 60.041893,127.522865 
	C59.709969,122.973167 59.153130,117.958481 59.080761,112.936821 
	C59.042595,110.288521 58.235622,108.902573 55.331184,108.409210 
z"/>
<path fill="#CD927E" opacity="1.000000" stroke="none" 
	d="
M56.506279,88.107071 
	C50.887005,88.362083 50.461853,92.260307 50.948135,96.996826 
	C51.160698,99.067184 50.783245,101.198128 50.420658,103.619202 
	C50.167591,98.850372 50.167591,93.763901 50.167591,88.043144 
	C52.256210,88.043144 54.160763,88.043144 56.506279,88.107071 
z"/>
<path fill="#948882" opacity="1.000000" stroke="none" 
	d="
M60.116386,68.363808 
	C60.351463,70.494545 60.499615,72.955627 60.346489,75.294617 
	C59.970440,73.463341 59.895664,71.754150 59.820885,70.044968 
	C59.890411,69.594696 59.959938,69.144432 60.116386,68.363808 
z"/>
<path fill="#57111C" opacity="1.000000" stroke="none" 
	d="
M59.582596,70.336243 
	C59.895664,71.754150 59.970440,73.463341 60.112507,75.596954 
	C60.116306,76.454590 60.052814,76.887802 59.911926,77.639618 
	C59.671116,75.514656 59.507710,73.071083 59.582596,70.336243 
z"/>
<path fill="#A6AEAE" opacity="1.000000" stroke="none" 
	d="
M180.416992,78.060608 
	C176.928848,78.084908 173.894150,78.078697 169.949936,78.042236 
	C166.011551,77.925385 162.982651,77.838783 159.953766,77.752182 
	C159.953766,74.779854 159.953766,71.807533 159.953766,67.995132 
	C165.652634,67.995132 170.916550,68.167023 176.154587,67.874802 
	C177.471222,67.801346 179.298706,66.509895 179.847229,65.303436 
	C180.845718,63.107365 180.309830,59.604240 181.813065,58.415493 
	C183.371048,57.183456 186.589050,58.050606 189.538025,57.997208 
	C189.975906,64.296707 189.956726,70.598618 189.860504,77.345123 
	C186.812454,77.869850 183.841446,77.949982 180.416992,78.060608 
z"/>
<path fill="#EAB69A" opacity="1.000000" stroke="none" 
	d="
M120.029556,59.457207 
	C124.476082,58.881916 128.905945,58.761238 133.645752,58.381287 
	C134.418655,58.104774 134.881577,58.087532 135.932892,58.334068 
	C137.644241,58.742771 138.767197,58.887691 139.890152,59.032612 
	C139.922531,61.387802 139.954910,63.742992 139.991486,66.780685 
	C139.995682,67.463188 139.982330,67.944855 139.982330,67.944855 
	C135.221832,67.963142 130.438919,67.701546 125.707298,68.080399 
	C121.200760,68.441216 119.245392,66.962303 119.984375,62.371376 
	C120.113251,61.570740 120.009308,60.732620 120.029556,59.457207 
z"/>
<path fill="#040200" opacity="1.000000" stroke="none" 
	d="
M159.722870,77.821884 
	C162.982651,77.838783 166.011551,77.925385 169.493546,78.065392 
	C169.969635,78.543755 169.992630,78.968712 170.016083,80.136612 
	C170.066681,82.908875 170.116806,84.938202 170.166916,86.967522 
	C170.166916,86.967522 170.002625,87.421211 169.946808,87.655930 
	C166.864700,88.020866 163.838409,88.151093 160.465805,88.089249 
	C159.855530,84.873520 159.591568,81.849869 159.184845,78.445885 
	C159.042099,78.065544 159.491989,77.891579 159.722870,77.821884 
z"/>
<path fill="#E0BAA4" opacity="1.000000" stroke="none" 
	d="
M139.921783,58.801918 
	C138.767197,58.887691 137.644241,58.742771 136.279114,58.361443 
	C137.085556,58.093102 138.134201,58.061169 139.574524,58.067459 
	C139.966232,58.105690 139.953400,58.571220 139.921783,58.801918 
z"/>
<path fill="#E0BAA4" opacity="1.000000" stroke="none" 
	d="
M140.225525,67.959534 
	C139.982330,67.944855 139.995682,67.463188 140.002884,67.222198 
	C140.324905,67.080772 140.578339,67.264809 140.863174,67.751770 
	C140.955933,67.970215 140.468704,67.974220 140.225525,67.959534 
z"/>
<path fill="#C69877" opacity="1.000000" stroke="none" 
	d="
M69.930298,197.536255 
	C69.587967,200.992767 69.286644,204.008499 68.962311,207.463211 
	C66.268074,207.936432 63.596851,207.970688 60.479919,208.025391 
	C60.038963,201.640182 60.043713,195.234512 60.093445,188.353027 
	C61.010475,188.242920 61.856915,188.837204 62.758614,188.938232 
	C70.023720,189.752106 70.026894,189.723755 69.930298,197.536255 
z"/>
<path fill="#FEDABE" opacity="1.000000" stroke="none" 
	d="
M59.883739,177.090210 
	C59.922943,180.421066 59.962147,183.751907 60.004265,187.538544 
	C53.990284,187.991653 47.973392,187.988998 41.482994,187.521011 
	C41.061405,177.778961 40.085976,179.130493 49.158897,179.003525 
	C51.449146,178.971481 53.762424,179.175720 56.020870,178.903854 
	C57.073856,178.777084 58.021255,177.773209 59.230293,177.113495 
	C59.444069,177.060089 59.883739,177.090210 59.883739,177.090210 
z"/>
<path fill="#FFDCBD" opacity="1.000000" stroke="none" 
	d="
M30.567179,197.954773 
	C30.071386,197.768433 30.022833,197.605011 29.968941,196.748566 
	C29.963598,193.482910 29.963598,190.910248 29.963598,187.967117 
	C33.428734,187.967117 36.205532,187.967117 38.972084,187.985229 
	C38.961838,188.003342 38.971127,188.043930 38.971127,188.043930 
	C41.981770,196.684692 40.891666,198.045670 30.567179,197.954773 
z"/>
<path fill="#FFDBA6" opacity="1.000000" stroke="none" 
	d="
M59.016518,177.166931 
	C58.021255,177.773209 57.073856,178.777084 56.020870,178.903854 
	C53.762424,179.175720 51.449146,178.971481 49.158897,179.003525 
	C40.085976,179.130493 41.061405,177.778961 41.016407,187.505890 
	C40.567524,187.975739 40.111729,187.995377 39.313530,188.029480 
	C38.971127,188.043930 38.961838,188.003342 38.981483,187.539673 
	C39.341431,183.997696 39.681728,180.919418 40.441494,177.908295 
	C43.913208,177.594650 46.965450,177.213837 50.463360,176.897232 
	C53.611523,177.029938 56.314022,177.098434 59.016518,177.166931 
z"/>
<path fill="#A7AEB0" opacity="1.000000" stroke="none" 
	d="
M78.989197,67.990509 
	C76.620094,68.002663 74.250999,68.014824 71.194107,68.015488 
	C70.506310,68.003990 70.016899,67.950256 70.016899,67.950256 
	C70.050056,61.567265 70.083221,55.184269 70.222458,48.329781 
	C79.121689,48.260155 79.121689,48.260155 80.558685,58.137104 
	C80.117325,61.848110 79.553261,64.919312 78.989197,67.990509 
z"/>
<path fill="#C69978" opacity="1.000000" stroke="none" 
	d="
M78.994751,67.995461 
	C79.553261,64.919312 80.117325,61.848110 80.856430,58.430717 
	C83.708252,58.070690 86.385040,58.056862 89.524750,58.518505 
	C89.991837,61.996151 89.996010,64.998322 90.000183,68.000488 
	C90.000183,68.000488 89.999474,67.999390 89.539673,67.996918 
	C85.723289,67.998772 82.366722,68.003105 79.010147,68.007431 
	C79.010147,68.007431 79.000313,68.000412 78.994751,67.995461 
z"/>
<path fill="#EAB69A" opacity="1.000000" stroke="none" 
	d="
M90.457428,68.000839 
	C89.996010,64.998322 89.991837,61.996151 89.969849,58.550911 
	C92.661705,58.078815 95.371376,58.049793 98.529694,58.043194 
	C101.978416,66.710609 100.931244,68.000877 90.457428,68.000839 
z"/>
<path fill="#74040D" opacity="1.000000" stroke="none" 
	d="
M178.094940,208.212769 
	C178.163345,208.053650 178.329727,208.041901 178.746109,208.033875 
	C178.728378,208.145126 178.460632,208.252625 178.094940,208.212769 
z"/>
<path fill="#A86C02" opacity="1.000000" stroke="none" 
	d="
M181.561035,198.057861 
	C180.981537,194.973526 180.838745,191.861359 180.871887,188.391281 
	C183.366898,188.031509 185.685989,188.029648 188.436417,188.051712 
	C188.913788,191.044449 188.959824,194.013290 189.021057,197.423431 
	C186.690079,197.919830 184.343933,197.974945 181.561035,198.057861 
z"/>
<path fill="#948882" opacity="1.000000" stroke="none" 
	d="
M70.011459,68.217651 
	C70.016899,67.950256 70.506310,68.003990 70.750488,68.034805 
	C70.888847,68.374916 70.701942,68.623177 70.221619,68.915176 
	C70.008194,68.841660 70.007111,68.663361 70.011459,68.217651 
z"/>
<path fill="#948882" opacity="1.000000" stroke="none" 
	d="
M69.720505,77.108841 
	C69.860435,77.320999 69.697662,77.577278 69.213623,77.855011 
	C69.104782,77.652679 69.279930,77.411514 69.720505,77.108841 
z"/>
<path fill="#B57F01" opacity="1.000000" stroke="none" 
	d="
M139.947754,167.925797 
	C139.949234,164.963501 139.950699,162.001221 139.981552,158.499908 
	C140.010941,157.960892 140.162521,157.781357 140.597137,157.841858 
	C143.953781,157.881973 146.875824,157.861588 150.192078,158.023102 
	C157.052475,158.120956 163.518661,158.036880 169.984863,157.952820 
	C169.982391,160.979950 169.979919,164.007065 169.948669,167.481415 
	C169.594620,167.945999 169.269455,167.975922 168.944077,167.978867 
	C159.719208,168.062195 159.910904,166.866440 160.009979,177.446350 
	C156.769577,177.480103 153.522598,177.075134 150.119537,175.884552 
	C150.050293,167.920273 150.050293,167.920273 144.021805,168.139343 
	C143.279877,168.130569 142.537949,168.121796 141.184082,168.109070 
	C140.572159,168.105133 140.078323,168.119247 140.047318,168.069778 
	C140.016312,168.020309 139.947754,167.925797 139.947754,167.925797 
z"/>
<path fill="#B32E00" opacity="1.000000" stroke="none" 
	d="
M169.988083,157.488922 
	C163.518661,158.036880 157.052475,158.120956 150.200607,157.773743 
	C149.814926,157.342453 149.690308,156.858490 149.809311,156.861115 
	C149.928314,156.863754 150.095703,157.033020 150.558014,157.021210 
	C155.495682,157.006226 159.979599,156.831848 164.443573,157.055634 
	C167.832794,157.225555 169.256073,156.180176 169.063400,152.590927 
	C168.806122,147.798004 169.003540,142.980652 169.005676,138.173798 
	C169.005692,138.173798 169.457230,138.021423 169.692352,137.982697 
	C169.948746,144.304321 169.970032,150.664688 169.988083,157.488922 
z"/>
<path fill="#A80404" opacity="1.000000" stroke="none" 
	d="
M68.995384,167.910828 
	C66.291092,167.940811 63.586800,167.970795 59.979031,168.009735 
	C56.044632,168.058914 53.013714,168.099136 49.530392,168.097229 
	C46.034512,168.068008 42.991032,168.080902 39.972416,168.048889 
	C39.997280,168.003952 40.041355,167.911194 40.028976,167.462921 
	C40.013676,164.011917 40.010754,161.009186 40.007828,158.006470 
	C40.007828,158.006470 40.000458,158.001221 40.461647,158.003265 
	C49.927231,157.988480 49.926998,157.988480 50.016529,149.015289 
	C50.019772,148.690094 50.036716,148.365036 50.047276,148.039917 
	C53.053837,148.018005 56.060402,147.996109 59.963722,147.978790 
	C63.573875,147.327774 66.287270,146.672180 69.000664,146.016571 
	C70.495789,146.652374 72.098442,148.007263 73.467880,147.802490 
	C80.277840,146.784149 80.557564,150.781296 80.008369,155.671204 
	C79.917709,156.478394 79.979919,157.302734 79.936172,158.583557 
	C71.587395,156.049713 70.015549,157.161942 69.737785,166.651230 
	C69.285736,167.396835 69.108681,167.629562 68.995384,167.910828 
z"/>
<path fill="#C32506" opacity="1.000000" stroke="none" 
	d="
M49.589508,148.026001 
	C50.036716,148.365036 50.019772,148.690094 50.016529,149.015289 
	C49.926998,157.988480 49.927231,157.988480 40.466610,158.008301 
	C40.010952,154.987930 40.011520,151.964554 40.025047,148.489838 
	C43.069256,148.029709 46.100498,148.020889 49.589508,148.026001 
z"/>
<path fill="#C62304" opacity="1.000000" stroke="none" 
	d="
M69.002022,145.617340 
	C66.287270,146.672180 63.573875,147.327774 60.414169,147.961700 
	C59.976810,145.264786 59.985764,142.589508 60.001015,139.232147 
	C60.007313,138.550064 60.029602,138.082001 60.029602,138.082001 
	C60.029602,138.082001 59.977325,137.981796 59.965202,137.925461 
	C62.954086,137.909866 65.955101,137.950607 69.455780,138.242371 
	C69.975128,138.670395 69.994797,138.847366 70.014465,139.024323 
	C69.677437,141.088928 69.340408,143.153519 69.002022,145.617340 
z"/>
<path fill="#C73716" opacity="1.000000" stroke="none" 
	d="
M59.573433,138.048431 
	C60.029602,138.082001 60.007313,138.550064 59.998962,138.784439 
	C56.886402,138.910629 53.782188,138.802460 50.350330,138.472931 
	C53.054211,138.172653 56.085739,138.093750 59.573433,138.048431 
z"/>
<path fill="#C82205" opacity="1.000000" stroke="none" 
	d="
M39.568115,158.003113 
	C40.010754,161.009186 40.013676,164.011917 39.579231,167.494415 
	C36.452011,168.006378 33.762157,168.038559 30.778316,167.782089 
	C30.318945,164.655655 30.153559,161.817871 29.988174,158.980072 
	C30.000874,158.549133 30.013571,158.118179 30.056835,157.365601 
	C33.101067,157.362549 36.114735,157.681168 39.568115,158.003113 
z"/>
<path fill="#CFD3D2" opacity="1.000000" stroke="none" 
	d="
M139.882339,148.969650 
	C136.765945,148.475983 133.649567,147.982300 129.999664,147.404114 
	C129.999664,145.074051 129.999664,142.524551 129.978699,139.522644 
	C131.836411,138.714279 133.710938,138.079193 135.594513,138.051056 
	C143.408707,137.934265 151.225632,138.000748 159.507263,137.994583 
	C160.164490,137.998627 160.356018,138.008026 160.648575,138.399261 
	C160.504395,139.528397 160.085953,140.265457 160.041046,141.024643 
	C159.633972,147.906082 159.653015,147.903305 153.010315,148.010559 
	C152.353745,148.021164 151.698532,148.117279 150.778625,148.125977 
	C150.338333,148.109238 150.162125,148.140213 149.729584,148.124313 
	C149.302704,148.110565 149.132172,148.143707 148.526505,148.106735 
	C145.743134,148.080978 143.394913,148.125336 140.788605,148.155304 
	C140.376556,148.427185 140.222565,148.713455 140.021454,148.995712 
	C139.974335,148.991714 139.882339,148.969650 139.882339,148.969650 
z"/>
<path fill="#C22305" opacity="1.000000" stroke="none" 
	d="
M151.042694,148.173691 
	C151.698532,148.117279 152.353745,148.021164 153.010315,148.010559 
	C159.653015,147.903305 159.633972,147.906082 160.041046,141.024643 
	C160.085953,140.265457 160.504395,139.528397 160.935791,138.414520 
	C163.460022,138.043823 165.798080,138.039673 168.570892,138.104660 
	C169.003540,142.980652 168.806122,147.798004 169.063400,152.590927 
	C169.256073,156.180176 167.832794,157.225555 164.443573,157.055634 
	C159.979599,156.831848 155.495682,157.006226 150.524506,156.572998 
	C150.081360,153.739197 150.134048,151.341843 150.385727,148.894531 
	C150.805695,148.667587 150.958359,148.443954 151.042694,148.173691 
z"/>
<path fill="#DB9A01" opacity="1.000000" stroke="none" 
	d="
M31.072304,168.070724 
	C33.762157,168.038559 36.452011,168.006378 39.591610,167.942688 
	C40.041355,167.911194 39.997280,168.003952 39.993126,168.274292 
	C39.988972,168.544647 40.028103,168.996155 40.019085,169.441681 
	C40.014053,172.538528 40.018040,175.189819 40.022026,177.841125 
	C39.681728,180.919418 39.341431,183.997696 38.991734,187.521545 
	C36.205532,187.967117 33.428734,187.967117 29.963598,187.967117 
	C29.963598,190.910248 29.963598,193.482910 29.895384,196.503662 
	C19.218550,197.051636 21.202244,197.799026 21.009195,188.484634 
	C20.944103,185.344131 21.006937,182.200974 21.014393,178.604309 
	C21.017483,178.149567 21.016386,178.005447 21.458345,177.984802 
	C24.474743,177.964157 27.049183,177.964157 29.318354,177.964157 
	C29.996494,174.139008 30.534399,171.104858 31.072304,168.070724 
z"/>
<path fill="#DF2D0A" opacity="1.000000" stroke="none" 
	d="
M30.778316,167.782089 
	C30.534399,171.104858 29.996494,174.139008 29.318354,177.964157 
	C27.049183,177.964157 24.474743,177.964157 21.447617,177.913544 
	C20.996090,173.370148 21.308723,168.849640 20.912079,164.392242 
	C20.503696,159.802948 22.334154,158.341782 26.587410,158.986938 
	C27.400337,159.110229 28.248655,159.000214 29.534410,158.988953 
	C30.153559,161.817871 30.318945,164.655655 30.778316,167.782089 
z"/>
<path fill="#CA740D" opacity="1.000000" stroke="none" 
	d="
M138.999298,168.035385 
	C138.999298,168.035385 139.475525,167.994751 139.711639,167.960266 
	C139.947754,167.925797 140.016312,168.020309 140.022827,168.509521 
	C139.997116,171.988007 139.964890,174.977264 139.932648,177.966537 
	C133.869995,178.286972 127.807549,178.757874 121.744507,178.765488 
	C120.835869,178.766632 119.417320,176.708939 119.130852,175.406540 
	C118.677963,173.347549 118.983154,171.121841 118.940849,168.520401 
	C119.379852,168.053238 119.845535,168.032333 120.656204,168.469574 
	C121.096703,178.161758 119.968422,176.896255 129.211914,176.995132 
	C129.540848,176.998657 129.869904,177.000046 130.198776,176.994827 
	C140.268066,176.834900 138.867950,178.497940 138.999298,168.035385 
z"/>
<path fill="#C73716" opacity="1.000000" stroke="none" 
	d="
M70.481209,139.018677 
	C69.994797,138.847366 69.975128,138.670395 69.900787,138.231659 
	C69.846115,137.969894 69.945869,137.902054 70.467842,137.943695 
	C77.001541,138.046234 83.013268,138.107147 89.015869,138.381592 
	C89.006737,138.595123 88.984665,139.021988 88.984665,139.021988 
	C82.972427,139.018997 76.960190,139.016022 70.481209,139.018677 
z"/>
<path fill="#CE3800" opacity="1.000000" stroke="none" 
	d="
M144.302704,168.382172 
	C150.050293,167.920273 150.050293,167.920273 149.918549,175.539795 
	C149.587585,175.244064 148.957336,174.447968 149.072723,173.780853 
	C149.705154,170.124390 147.884949,168.769363 144.302704,168.382172 
z"/>
<path fill="#CE3800" opacity="1.000000" stroke="none" 
	d="
M140.236191,177.696503 
	C139.964890,174.977264 139.997116,171.988007 140.053833,168.558990 
	C140.078323,168.119247 140.572159,168.105133 140.815338,168.153015 
	C140.885590,171.276093 140.712662,174.351273 140.236191,177.696503 
z"/>
<path fill="#CE3800" opacity="1.000000" stroke="none" 
	d="
M88.990211,139.459595 
	C88.984665,139.021988 89.006737,138.595123 89.253242,138.326630 
	C89.499748,138.058136 89.984192,138.005753 89.984192,138.005753 
	C89.984192,138.005753 89.917442,138.063263 89.965530,138.317902 
	C90.013611,138.572540 90.126213,138.989334 90.126213,138.989334 
	C90.093552,141.687103 90.060883,144.384857 90.060638,147.530701 
	C89.727287,145.284927 89.361526,142.591049 88.990211,139.459595 
z"/>
<path fill="#C52508" opacity="1.000000" stroke="none" 
	d="
M89.979584,170.631073 
	C89.015373,170.231918 88.046677,169.463791 87.038345,168.360870 
	C87.990837,168.771408 88.982971,169.516754 89.979584,170.631073 
z"/>
<path fill="#A96A02" opacity="1.000000" stroke="none" 
	d="
M59.230293,177.113510 
	C56.314022,177.098434 53.611523,177.029938 50.458344,176.464996 
	C50.010845,173.647125 50.014023,171.325699 50.468033,169.001373 
	C53.900608,169.007233 56.882351,169.015976 59.864098,169.024719 
	C59.898666,171.415710 59.933239,173.806717 59.925774,176.643951 
	C59.883739,177.090210 59.444069,177.060089 59.230293,177.113510 
z"/>
<path fill="#AC6319" opacity="1.000000" stroke="none" 
	d="
M59.911858,168.784805 
	C56.882351,169.015976 53.900608,169.007233 50.460335,168.999069 
	C50.001804,168.999649 49.991013,168.997559 49.992519,168.782974 
	C49.994026,168.568390 49.982792,168.139343 49.982792,168.139343 
	C53.013714,168.099136 56.044632,168.058914 59.528694,168.037445 
	C59.981834,168.056168 59.959621,168.544891 59.911858,168.784805 
z"/>
<path fill="#9D090D" opacity="1.000000" stroke="none" 
	d="
M69.211105,167.831207 
	C69.108681,167.629562 69.285736,167.396835 69.718948,167.104279 
	C69.860115,167.318558 69.698608,167.570450 69.211105,167.831207 
z"/>
<path fill="#E6B698" opacity="1.000000" stroke="none" 
	d="
M79.169159,68.385239 
	C82.366722,68.003105 85.723289,67.998772 89.537338,67.994446 
	C90.004517,71.003952 90.014214,74.013474 90.050797,77.468140 
	C86.962959,77.750900 83.065628,78.642715 80.979858,77.094299 
	C79.295792,75.844093 79.796608,71.650749 79.169159,68.385239 
z"/>
<path fill="#DC8E6B" opacity="1.000000" stroke="none" 
	d="
M89.687668,137.714203 
	C89.984192,138.005753 89.499748,138.058136 89.262375,138.113098 
	C83.013268,138.107147 77.001541,138.046234 70.527596,137.951904 
	C70.065376,137.918503 70.058937,137.446106 70.115433,137.216614 
	C76.578331,137.132294 82.984734,137.277481 89.687668,137.714203 
z"/>
<path fill="#D99A1F" opacity="1.000000" stroke="none" 
	d="
M90.304367,138.901184 
	C90.126213,138.989334 90.013611,138.572540 89.973694,138.361206 
	C90.115883,138.140839 90.297997,138.131805 90.747879,138.178741 
	C90.886665,138.472397 90.708954,138.665161 90.304367,138.901184 
z"/>
<path fill="#B57F01" opacity="1.000000" stroke="none" 
	d="
M138.531555,168.022400 
	C138.867950,178.497940 140.268066,176.834900 130.198776,176.994827 
	C129.869904,177.000046 129.540848,176.998657 129.211914,176.995132 
	C119.968422,176.896255 121.096703,178.161758 121.005424,168.475021 
	C126.694382,168.018051 132.379089,168.013733 138.531555,168.022400 
z"/>
<path fill="#CE3800" opacity="1.000000" stroke="none" 
	d="
M118.927765,148.495102 
	C119.597397,149.792755 120.805672,151.516968 120.885727,153.292053 
	C121.011543,156.081436 121.967201,157.128693 124.744545,157.037338 
	C129.218414,156.890213 133.700424,156.990402 138.885986,156.984009 
	C139.592972,156.981934 140.055710,156.950150 140.126556,156.937134 
	C140.197418,156.924103 140.327026,156.861160 140.250488,157.084869 
	C140.173965,157.308594 140.162521,157.781357 140.162521,157.781357 
	C140.162521,157.781357 140.010941,157.960892 139.944916,158.059296 
	C133.807846,158.412064 127.735451,158.814880 121.667297,158.758682 
	C120.770592,158.750397 119.401009,156.676788 119.121307,155.371994 
	C118.679871,153.312622 118.976372,151.095078 118.927765,148.495102 
z"/>
<path fill="#2F31FF" opacity="1.000000" stroke="none" 
	d="
M150.186737,148.944473 
	C150.134048,151.341843 150.081360,153.739197 150.062195,156.584793 
	C150.095703,157.033020 149.928314,156.863754 149.384674,156.884247 
	C146.003036,156.890228 143.165024,156.875687 140.327026,156.861160 
	C140.327026,156.861160 140.197418,156.924103 140.155365,156.688202 
	C140.025879,156.309937 139.938416,156.167572 139.850983,156.025192 
	C139.889740,153.965973 139.928497,151.906738 139.924805,149.408585 
	C139.882339,148.969650 139.974335,148.991714 140.248474,148.953171 
	C140.784897,148.727936 140.959579,148.479630 141.046677,148.169693 
	C143.394913,148.125336 145.743134,148.080978 148.598297,148.289505 
	C149.222595,148.787750 149.403503,148.970001 149.803665,149.131195 
	C149.959366,149.173218 150.186737,148.944473 150.186737,148.944473 
z"/>
<path fill="#992643" opacity="1.000000" stroke="none" 
	d="
M139.655884,156.110321 
	C139.938416,156.167572 140.025879,156.309937 140.084518,156.701233 
	C140.055710,156.950150 139.592972,156.981934 139.362320,156.973236 
	C139.146973,156.667740 139.256683,156.411377 139.655884,156.110321 
z"/>
<path fill="#BE9B83" opacity="1.000000" stroke="none" 
	d="
M170.404312,86.686417 
	C170.116806,84.938202 170.066681,82.908875 170.086044,80.448723 
	C170.317596,82.147034 170.479645,84.276169 170.404312,86.686417 
z"/>
<path fill="#B68002" opacity="1.000000" stroke="none" 
	d="
M50.009502,169.001953 
	C50.014023,171.325699 50.010845,173.647125 50.012680,176.400787 
	C46.965450,177.213837 43.913208,177.594650 40.441494,177.908295 
	C40.018040,175.189819 40.014053,172.538528 40.469955,169.443329 
	C43.950237,168.998795 46.970623,168.998184 49.991013,168.997559 
	C49.991013,168.997559 50.001804,168.999649 50.009502,169.001953 
z"/>
<path fill="#5530C2" opacity="1.000000" stroke="none" 
	d="
M140.250488,157.084869 
	C143.165024,156.875687 146.003036,156.890228 149.265671,156.881622 
	C149.690308,156.858490 149.814926,157.342453 149.806396,157.591827 
	C146.875824,157.861588 143.953781,157.881973 140.597137,157.841858 
	C140.162521,157.781357 140.173965,157.308594 140.250488,157.084869 
z"/>
<path fill="#CA740D" opacity="1.000000" stroke="none" 
	d="
M49.992519,168.782974 
	C46.970623,168.998184 43.950237,168.998795 40.478973,168.997787 
	C40.028103,168.996155 39.988972,168.544647 39.968262,168.319229 
	C42.991032,168.080902 46.034512,168.068008 49.530392,168.097229 
	C49.982792,168.139343 49.994026,168.568390 49.992519,168.782974 
z"/>
<path fill="#992643" opacity="1.000000" stroke="none" 
	d="
M150.778625,148.125977 
	C150.958359,148.443954 150.805695,148.667587 150.385727,148.894531 
	C150.186737,148.944473 149.959366,149.173218 149.926544,148.915558 
	C149.893707,148.657883 149.985931,148.171204 149.985931,148.171204 
	C150.162125,148.140213 150.338333,148.109238 150.778625,148.125977 
z"/>
<path fill="#5530C2" opacity="1.000000" stroke="none" 
	d="
M149.729584,148.124313 
	C149.985931,148.171204 149.893707,148.657883 149.770844,148.873520 
	C149.403503,148.970001 149.222595,148.787750 149.033447,148.359619 
	C149.132172,148.143707 149.302704,148.110565 149.729584,148.124313 
z"/>
<path fill="#5530C2" opacity="1.000000" stroke="none" 
	d="
M140.788605,148.155304 
	C140.959579,148.479630 140.784897,148.727936 140.295593,148.957169 
	C140.222565,148.713455 140.376556,148.427185 140.788605,148.155304 
z"/>
</svg>